<?xml version="1.0" encoding="UTF-8"?>
<svg id="Calque_1" xmlns="http://www.w3.org/2000/svg" version="1.1" viewBox="0 0 297.64 419.53">
  <!-- Generator: Adobe Illustrator 30.7.0, SVG Export Plug-In . SVG Version: 2.1.4 Build 114)  -->
  <rect x="-.05" y="-.04" width="297.42" height="420.42" fill="#c23a2c"/>
  <path d="M131.21,339.61l-23.58-28.87-14.44-27.91-16.84-37.53-9.62-16.84-19.73-45.23-6.26-33.68,3.37-24.54,10.11-25.99,20.21-14.44,12.51-4.33,19.25.96,22.62,11.07,14.92,14.92,10.59,19.73,1.44,10.59,31.28-33.2,15.88-8.18,29.35,3.85,12.51,11.07,8.66,20.69.48,33.68-3.37,22.14-10.59,23.58-13.47,28.39-22.14,33.2-14.44,17.32s-19.73,26.47-20.21,27.91-21.17,21.17-21.17,21.17c0,0-3.85,7.22-7.7,7.22s-9.62-6.74-9.62-6.74Z" fill="#f4b4d3"/>
  <g>
    <path d="M257.07,356.49c-6.67,0-12.07,5.41-12.07,12.07,0,3.7,1.67,7.01,4.29,9.23l7.78,7.78,7.78-7.78c2.62-2.21,4.29-5.53,4.29-9.23,0-6.67-5.41-12.07-12.07-12.07ZM263.77,376.07h0s-6.7,6.71-6.7,6.71l-6.7-6.7h0c-2.06-1.85-3.36-4.52-3.36-7.51,0-5.56,4.51-10.07,10.07-10.07s10.07,4.51,10.07,10.07c0,2.98-1.3,5.66-3.36,7.51Z" fill="#f5b6d3"/>
    <path d="M244.99,368.56c0,3.7,1.67,7.01,4.29,9.23l7.78,7.78,7.78-7.78c2.62-2.21,4.29-5.53,4.29-9.23,0-6.67-5.41-12.07-12.07-12.07-6.67,0-12.07,5.41-12.07,12.07ZM247,368.56c0-5.56,4.51-10.07,10.07-10.07,5.56,0,10.07,4.51,10.07,10.07,0,2.98-1.3,5.66-3.36,7.51h0s-6.7,6.71-6.7,6.71l-6.7-6.7h0c-2.06-1.85-3.36-4.52-3.36-7.51Z" fill="#f5b6d3"/>
    <path d="M246.22,391.49c3.7,0,7.01-1.67,9.23-4.29l7.78-7.78-7.78-7.78c-2.21-2.62-5.53-4.29-9.23-4.29-6.67,0-12.07,5.41-12.07,12.07,0,6.67,5.41,12.07,12.07,12.07ZM246.22,389.48c-5.56,0-10.07-4.51-10.07-10.07,0-5.56,4.51-10.07,10.07-10.07,2.98,0,5.66,1.3,7.51,3.36h0s6.7,6.7,6.7,6.7l-6.7,6.7h0c-1.84,2.06-4.52,3.36-7.51,3.36Z" fill="#f5b6d3"/>
    <path d="M269.14,390.26c0-3.7-1.67-7.01-4.29-9.23l-7.78-7.78-7.78,7.78c-2.62,2.21-4.29,5.53-4.29,9.23,0,6.67,5.41,12.07,12.07,12.07s12.07-5.41,12.07-12.07ZM267.14,390.26c0,5.56-4.51,10.07-10.07,10.07s-10.07-4.51-10.07-10.07c0-2.98,1.3-5.66,3.36-7.51h0s6.7-6.71,6.7-6.71l6.7,6.7h0c2.06,1.85,3.36,4.52,3.36,7.51Z" fill="#f5b6d3"/>
    <path d="M267.92,367.34c-3.7,0-7.01,1.67-9.23,4.29l-7.78,7.78,7.78,7.78c2.21,2.62,5.53,4.29,9.23,4.29,6.67,0,12.07-5.41,12.07-12.07s-5.41-12.07-12.07-12.07ZM267.92,369.35c5.56,0,10.07,4.51,10.07,10.07s-4.51,10.07-10.07,10.07c-2.98,0-5.66-1.3-7.51-3.36h0s-6.7-6.7-6.7-6.7l6.7-6.7h0c1.84-2.06,4.52-3.36,7.51-3.36Z" fill="#f5b6d3"/>
  </g>
  <text transform="translate(237.24 412.63) scale(.94 1)" fill="#f5b6d3" font-family="Cafeteria-Black, Cafeteria" font-size="9.94" font-weight="800" letter-spacing=".1em"><tspan x="0" y="0">ypersoa.fr</tspan></text>
  <g>
    <path d="M41.05,236.8c-1.13.27-4.58-.11-5.86-.77.29.89.9,3.78.9,3.78,0,0-5.53,1.63-9.63,3.56-1.21-5.79-4.48-19.56-4.71-20.54-1-4.24-4.17-16.91-4.82-19.64-.14-.61-1.75-6.7-2.75-9.26,3.45-1.3,6.04-2.15,10.36-3.82.97,5.44,2.36,11.99,3.39,16.3,1.98-1.43,4.35-2.55,5.56-2.84,2.88-.68,5.36-.31,8.89,2.77,2.56,2.35,5.15,6.21,6.55,12.11,3.21,13.54-3.11,17.2-7.88,18.33ZM33.81,211.98c-.83.2-2.68,1.51-3.37,2.32.53,2.59,2.55,11.78,3.28,14.49,1.35.32,2.75.47,4.34.09,1.89-.45,2.45-1.78,1.15-7.31-1.15-4.84-2.89-10.18-5.39-9.59Z" fill="#fff"/>
    <path d="M76.99,232.34c-4.93.69-9.79-.91-12.88-5.03-1.93-2.56-3.49-5.32-4.13-9.87-1.8-12.86,4.42-18.92,12.2-20.01,7.32-1.02,15.52,1.44,17.16,13.15,1.73,12.32-4.87,20.71-12.35,21.76ZM72.53,206.11c-2.46.35-3.53,2.85-2.73,8.55.77,5.47,3.82,9.36,6.52,8.98,2.46-.35,3.7-3.89,2.9-9.59-.86-6.16-4.07-8.3-6.69-7.94Z" fill="#fff"/>
    <path d="M118.09,228.24c0-4.98-.13-9.57-.17-10.35-.14-3.03-.6-9.55-.63-11.8-.03-2.41-.71-3.47-2.1-3.41-1.24.06-2.76.83-4.13,1.59.36,4.42,1.68,20.94,2.4,24.88-3.86.65-6.81.78-11,1.21.2-5.77-1.78-23.27-1.86-24.9-.01-.31-.74-7.52-1.51-10.75,4.12-.19,6.83-.55,11.07-1.37l.17,3.65c2.26-1.58,5.79-2.68,8.82-2.82,5.05-.24,8.19,2.03,8.55,9.8.15,3.26.8,17.17,1.15,24.78-4.62-.49-6.57-.63-10.77-.51Z" fill="#fff"/>
    <path d="M166.42,221.61c-.22,1.39-.48,5.51-.56,9.24-4.77-1.22-7.09-1.56-10.42-2.1.22-3.18.7-12.42.95-14.36.11-.62.21-6.45.06-8.48-.05-.7-1.27-1.22-2.52-1.12-1.48.09-2.51.51-3.23.79-.4,5.43-1.33,19.48-.94,24.71-5.1-.85-7.2-.94-10.38-1.16.3-3.18.35-9.64.67-13.52.36-4.65.68-15.46.73-16.55.17-3.73.61-13.83,1.25-23.07,3.17.53,7.21.79,10.22,1.23-.1,2.25-.94,14.13-.97,20.28,1.82-.7,6.2-1.21,8.22-1.12,1.24.06,3.32.69,4.76,1.61,1.06.67,3.19,3.57,3.01,7.53-.02.54-.52,13.6-.87,16.08Z" fill="#fff"/>
    <path d="M190.28,232.66c-9.94-1.34-13.47-9.51-12.15-19.29,2-14.88,9.16-16.74,16.87-15.7,7.4,1,10.38,9.17,9.38,21.2-6.93-.38-13.58-1.12-16.84-1.41-.63,3.52,1.63,6.5,5.26,6.99,1.16.16,4.47.05,9.22-1.43.46,2.42,1.03,3.98,1.97,6.31-2.56,2.71-10.63,3.75-13.71,3.33ZM192.88,204.68c-2.16-.29-4.52,2.69-4.67,6.12.91.2,2.46.41,2.93.39.94.05,3.19.2,4.28.26.23-2.87-.23-6.47-2.54-6.78Z" fill="#fff"/>
    <path d="M228.66,240.04l.17-2.59c-1.9.3-8.64.16-10.31-.21-2.66-.59-4.03-2.65-4.19-4.83-.13-1.94.74-6.21,1.23-8.41.71-3.19,2.37-11.42,2.61-12.88.28-1.61.84-5.23,1.33-7.83,4.47,1.39,6.9,1.93,10.6,2.51-.89,4.02-4.52,21.14-4.61,21.52-.39,1.75-.23,2.82.84,3.05,1.06.24,3.36-.05,4.14-.36.76-3.42,2.72-11.9,3.45-16.28.34-1.92,1.35-6.07,1.59-8.25,3.29.25,6.2.42,10.95.19l-8.27,37.36c-3.28-1.36-6.23-2.42-9.53-2.99Z" fill="#fff"/>
    <path d="M264.92,224.39c-1.23,5.31-3.56,16.1-4.41,23.07-4.25-1.73-5.99-2.16-10.37-3.28,1.24-4.59,3.3-13.62,3.48-14.53.32-1.6,1.7-8.07,1.96-9.36.67-3.36,1.5-7.87,2.21-12.17,3.81,1.96,9.94,3.43,9.94,3.43l-.66,3.28c1.79-.99,4.85-1.64,8.47-1.47.01,3.49.24,5.13.98,9.32-6.98-1.17-9.82-.07-11.61,1.71Z" fill="#fff"/>
  </g>
</svg>