<?xml version="1.0" encoding="UTF-8"?>
<svg id="Calque_1" xmlns="http://www.w3.org/2000/svg" xmlns:xlink="http://www.w3.org/1999/xlink" version="1.1" viewBox="0 0 1080 1440">
  <!-- Generator: Adobe Illustrator 30.7.0, SVG Export Plug-In . SVG Version: 2.1.4 Build 114)  -->
  <defs>
    <clipPath id="clippath">
      <rect x="76.91" y="2.67" width="1034.97" height="1455.97" fill="none"/>
    </clipPath>
  </defs>
  <rect x="-68.98" y="-3.77" width="1180.39" height="1462.79" fill="#c23a2c"/>
  <g>
    <path d="M100.18,1221.15c-23.2,0-42,18.81-42,42,0,12.88,5.8,24.4,14.93,32.1l27.08,27.08,27.08-27.08c9.13-7.7,14.93-19.22,14.93-32.1,0-23.2-18.81-42-42-42ZM123.5,1289.27h0s-23.32,23.33-23.32,23.33l-23.32-23.32h0c-7.18-6.42-11.7-15.74-11.7-26.12,0-19.34,15.68-35.02,35.02-35.02s35.02,15.68,35.02,35.02c0,10.38-4.53,19.7-11.7,26.12Z" fill="#f5b6d3"/>
    <path d="M58.18,1263.16c0,12.88,5.8,24.4,14.93,32.1l27.08,27.08,27.08-27.08c9.13-7.7,14.93-19.22,14.93-32.1,0-23.2-18.81-42-42-42-23.2,0-42,18.81-42,42ZM65.16,1263.16c0-19.34,15.68-35.02,35.02-35.02,19.34,0,35.02,15.68,35.02,35.02,0,10.38-4.53,19.7-11.7,26.12h0s-23.32,23.33-23.32,23.33l-23.32-23.32h0c-7.18-6.42-11.7-15.74-11.7-26.12Z" fill="#f5b6d3"/>
    <path d="M62.44,1342.9c12.88,0,24.4-5.8,32.1-14.93l27.08-27.08-27.08-27.08c-7.7-9.13-19.22-14.93-32.1-14.93-23.2,0-42,18.81-42,42,0,23.2,18.81,42,42,42ZM62.44,1335.92c-19.34,0-35.02-15.68-35.02-35.02,0-19.34,15.68-35.02,35.02-35.02,10.38,0,19.7,4.53,26.12,11.7h0s23.32,23.32,23.32,23.32l-23.32,23.32h0c-6.41,7.17-15.73,11.7-26.12,11.7Z" fill="#f5b6d3"/>
    <path d="M142.19,1338.64c0-12.88-5.8-24.4-14.93-32.1l-27.08-27.08-27.08,27.08c-9.13,7.7-14.93,19.22-14.93,32.1,0,23.2,18.81,42,42,42,23.2,0,42-18.81,42-42ZM135.2,1338.64c0,19.34-15.68,35.02-35.02,35.02-19.34,0-35.02-15.68-35.02-35.02,0-10.38,4.53-19.7,11.7-26.12h0s23.32-23.33,23.32-23.33l23.32,23.32h0c7.18,6.42,11.7,15.74,11.7,26.12Z" fill="#f5b6d3"/>
    <path d="M137.92,1258.89c-12.88,0-24.4,5.8-32.1,14.93l-27.08,27.08,27.08,27.08c7.7,9.13,19.22,14.93,32.1,14.93,23.2,0,42-18.81,42-42s-18.81-42-42-42ZM137.92,1265.88c19.34,0,35.02,15.68,35.02,35.02,0,19.34-15.68,35.02-35.02,35.02-10.38,0-19.7-4.53-26.12-11.7h0s-23.32-23.32-23.32-23.32l23.32-23.32h0c6.41-7.17,15.73-11.7,26.12-11.7Z" fill="#f5b6d3"/>
  </g>
  <g>
    <path d="M37.63,1423.02c-1.69-.49-2.01-.69-4.16-.87,1.01-2.25,2.34-6.4,2.7-7.54-.16-.59-.78-1.97-.97-2.6-.39-1.25-3.25-8.65-3.96-10.42,1.85-.45,2.66-.66,4.19-1.45.88,2.39,1.95,7.58,2.73,9.93.78-2.67,1.82-8.41,2.05-9.87,1.66.76,2.66,1.07,4.35,1.39-.88,2.38-6.27,19.07-6.92,21.42Z" fill="#f5b6d3"/>
    <path d="M58.35,1415.51c-1.07,1.59-2.21,1.83-3.31,1.83-.33,0-1.62-.45-2.21-.83v2.84c0,.9.06,1.76.26,3.32-1.75.07-2.86.17-4.39.55-.1-2.11-.03-7.96-.03-13.26-.03-3.46-.07-10.28-.07-10.28,1.82.52,2.99.8,4.16.97-.03.42-.03.8-.06,1.11.52-.14,2.24-.24,2.73-.24.68,0,1.1.17,1.72.45.59.28,1.11.55,1.4.97.88,1.21,1.23,2.01,1.23,6.92,0,2.56-.49,4.33-1.43,5.64ZM54.06,1405.02c-.26,0-1.01.14-1.27.21-.03.52-.06,2.01-.06,2.77,0,1.52.03,4.26.06,5.05.39.35,1.43.55,1.72.55.58,0,.85-.49.85-3.67s-.16-4.92-1.3-4.92Z" fill="#f5b6d3"/>
    <path d="M70.33,1416.48c-4.19,0-6.11-3.39-6.11-7.79,0-6.68,2.86-7.93,6.11-7.93s4.81,3.43,5.07,8.79c-2.89.24-5.69.31-7.05.38-.06,1.59,1.04,2.77,2.57,2.77.49,0,1.85-.24,3.74-1.18.32,1.04.65,1.7,1.17,2.67-.91,1.35-4.19,2.28-5.49,2.28ZM69.84,1403.98c-.91,0-1.72,1.45-1.59,2.98.39.03,1.04.03,1.23,0,.39-.04,1.33-.11,1.79-.14-.06-1.28-.46-2.84-1.43-2.84Z" fill="#f5b6d3"/>
    <path d="M84.35,1406.13c-.06,2.42-.13,7.34.1,10.45-1.88-.38-2.63-.42-4.51-.52.13-2.11.23-6.23.23-6.64,0-.73.03-3.67.03-4.26,0-1.52-.03-3.56-.1-5.5,1.72.52,4.35.62,4.35.62v1.49c.65-.59,1.85-1.14,3.35-1.38.29,1.52.52,2.21,1.17,3.98-2.96.1-4.03.83-4.61,1.76Z" fill="#f5b6d3"/>
    <path d="M94.32,1417.34c-.06-1.49-.19-2.18-.58-3.98,2.08-.07,3.74-.31,3.74-1.24,0-.83-.59-1.42-1.85-2.29-1.46-1-2.99-2.04-2.99-4.5,0-3.46,3.18-4.33,8.38-4.57,0,1.11.1,2.56.29,3.63-2.73.03-4.35.41-4.35,1.04,0,.21.42.52.84.76,1.66,1.11,3.96,2.29,3.96,5.88,0,2.7-2.24,4.95-7.44,5.26Z" fill="#f5b6d3"/>
    <path d="M112.21,1416.24c-2.08,0-3.99-1.01-5.03-3.01-.65-1.25-1.14-2.56-1.14-4.6,0-5.78,2.92-8.06,6.21-8.06,3.08,0,6.34,1.59,6.34,6.85,0,5.54-3.22,8.83-6.37,8.83ZM111.89,1404.4c-1.04,0-1.62,1.04-1.62,3.6s1.04,4.36,2.17,4.36c1.04,0,1.76-1.49,1.76-4.05,0-2.77-1.2-3.91-2.31-3.91Z" fill="#f5b6d3"/>
    <path d="M129.78,1417.24c-.33-.93-.42-1.56-.49-2.11-.81.66-2.14,1.42-3.18,1.42-1.4,0-3.77-2.18-3.77-5.02,0-1.45.23-3.22,2.01-4.05,1.66-.76,3.74-1.38,4.71-1.66.03-.69-.13-1.11-.39-1.24-.65-.31-1.66-.42-3.77-.42,0,0,.26-2.11.2-3.74,2.92.35,4.51.59,6.37,1.35,1.14.45,1.75,1.97,1.75,3.43,0,.21.03,4.54.03,7.44,0,1.11.13,2.35.29,3.32-1.56.38-2.27.55-3.77,1.28ZM127.41,1409.56c-.81.35-1.17,1.11-1.17,1.73,0,.79.39,1.52,1.04,1.52.58,0,1.53-.48,1.85-.9.03-.31.03-2.21.03-2.9-.49.17-1.49.45-1.75.55Z" fill="#f5b6d3"/>
    <path d="M141.11,1416.69c-1.82,0-2.99-.79-2.99-2.46,0-1.31,1.01-2.46,2.99-2.46,1.46,0,2.27.59,2.27,2.46,0,1.63-1.01,2.46-2.27,2.46Z" fill="#f5b6d3"/>
    <path d="M153.55,1397.79c-.16.24-.29,1.07-.26,1.7.03.55.03.93.03,1.45.52.03,1.27.07,2.14-.03l.06,3.74s-1.53-.24-2.05-.24l-.06,3.32c.1,1.59.06,8.89.06,8.89-1.85-.35-3.02-.41-4.65-.62.1-1.45.13-3.5.23-4.88.06-1.04.06-2.35.06-2.7v-3.84l-1.43-.14-.59-3.7,2.01.14c0-1.14-.1-3.22-.1-3.53,0-1.04.36-3.39,6.43-4.22.23,1.42.42,2.14.94,3.67-1.88.17-2.47.48-2.86,1Z" fill="#f5b6d3"/>
    <path d="M164.53,1406.13c-.06,2.42-.13,7.34.1,10.45-1.88-.38-2.63-.42-4.51-.52.13-2.11.23-6.23.23-6.64,0-.73.03-3.67.03-4.26,0-1.52-.03-3.56-.1-5.5,1.72.52,4.35.62,4.35.62v1.49c.65-.59,1.85-1.14,3.35-1.38.29,1.52.52,2.21,1.17,3.98-2.96.1-4.03.83-4.61,1.76Z" fill="#f5b6d3"/>
  </g>
  <g clip-path="url(#clippath)">
    <g>
      <path d="M721.45,1515.27l-127.68-156.14-78.21-150.96-91.26-203.03-52.13-91.09-106.91-244.67-33.97-182.23,18.14-132.8,54.59-140.63,109.3-78.18,67.68-23.48,104.15,5.14,122.41,59.8,80.77,80.66,57.35,106.71,7.85,57.28,169.12-179.76,85.89-44.32,158.84,20.73,67.73,59.84,46.94,111.93,2.72,182.25-18.15,119.78-57.2,127.62-72.8,153.66-119.65,179.73-78.05,93.78s-106.66,143.27-109.26,151.08c-2.6,7.81-114.49,114.63-114.49,114.63,0,0-20.8,39.07-41.63,39.08-20.83.01-52.1-36.42-52.1-36.42Z" fill="#f4b4d3"/>
      <g>
        <path d="M364.29,1000.89c-1.42.58-4.56,1.81-4.64,1.84-1.34.55-6.08,2.48-6.95,2.84-.71.29-.92.68-.6,1.46.23.56.6,1.14.91,1.45,2.24-.96,10.26-4.32,11.82-5.13.68,1.67,1.57,3.39,2.54,5.2-1.68.51-3.68,1.37-3.88,1.45-1.26.52-7.57,3.13-8.43,3.48-.75.31-.95.95-.75,1.43.21.52.61,1.27.93,1.61,0,0,9.64-3.68,13.98-5.7.3,2.21.71,3.65,1.15,5.41-2.24.83-6.1,2.32-6.34,2.42l-11.53,4.7c-.4-1.87-.7-2.96-1.28-4.72l1.13-.5c-.93-.57-2.39-2.14-3.04-3.74-.55-1.33-.25-2.41.66-3.56.09-.12.29-.3.29-.3-.74-.35-2.76-2.59-3.52-4.45-1.12-2.74.12-3.99,3.36-5.31l11.53-4.7c.83,1.57,1.7,3.16,2.65,4.8Z" fill="#f5b6d3"/>
        <path d="M357.96,981.76c-.92.8-1.58,1.2-2.19,1.53,1.13.63,2.61,1.8,3.09,2.99.65,1.59-.74,5.32-3.99,6.62-1.66.68-3.78,1.23-5.56-.43-1.64-1.54-3.31-3.63-4.08-4.62-.81.28-1.2.66-1.24,1.02-.05.89.29,2.09,1.27,4.5,0,0-2.53.68-4.36,1.5-.96-3.5-1.42-5.44-1.41-7.9-.01-1.51,1.44-2.91,3.1-3.59.24-.1,5.16-2.13,8.49-3.48,1.27-.51,2.63-1.24,3.66-1.87,1.16,1.61,1.69,2.34,3.21,3.72ZM350.28,988.02c.77.77,1.81.83,2.52.54.91-.37,1.56-1.15,1.26-1.89-.27-.67-1.26-1.52-1.89-1.7-.37.11-2.55.99-3.34,1.3.42.48,1.21,1.5,1.45,1.75Z" fill="#f5b6d3"/>
        <path d="M346.65,957.37c-1.42.58-4.56,1.82-4.63,1.85-1.34.55-6.08,2.49-6.95,2.84-.71.29-.92.68-.6,1.46.23.56.6,1.14.91,1.45,2.24-.96,10.26-4.33,11.82-5.14.68,1.67,1.57,3.38,2.54,5.19-1.68.52-3.68,1.38-3.87,1.46-1.26.52-7.57,3.14-8.43,3.5-.75.31-.95.95-.75,1.43.21.52.61,1.27.93,1.61,0,0,9.65-3.69,13.98-5.72.3,2.21.71,3.65,1.15,5.42-2.24.83-6.1,2.32-6.34,2.42l-11.53,4.72c-.4-1.87-.7-2.96-1.28-4.72l1.13-.5c-.93-.57-2.39-2.14-3.05-3.73-.55-1.34-.25-2.41.66-3.56.09-.12.3-.3.3-.3-.74-.35-2.76-2.59-3.52-4.45-1.12-2.74.12-3.99,3.36-5.31l11.53-4.72c.83,1.57,1.71,3.16,2.65,4.8Z" fill="#f5b6d3"/>
        <path d="M340.19,938.29c-.91.81-1.58,1.21-2.17,1.55,1.13.61,2.62,1.77,3.11,2.96.65,1.59-.72,5.32-3.95,6.66-1.66.68-3.77,1.25-5.56-.39-1.65-1.53-3.33-3.61-4.11-4.59-.81.29-1.2.67-1.24,1.03-.05.89.3,2.09,1.3,4.49,0,0-2.53.69-4.35,1.53-.98-3.5-1.45-5.43-1.45-7.89-.02-1.5,1.42-2.93,3.08-3.61.24-.1,5.15-2.17,8.46-3.54,1.26-.52,2.62-1.25,3.65-1.89,1.17,1.6,1.7,2.33,3.23,3.69ZM332.55,944.61c.78.76,1.81.81,2.52.52.91-.37,1.55-1.16,1.25-1.9-.27-.67-1.27-1.52-1.9-1.69-.37.11-2.54,1.01-3.33,1.33.42.48,1.21,1.49,1.45,1.74Z" fill="#f5b6d3"/>
        <path d="M331.61,921.37c-2.57.93-4.91,1.86-5.31,2.03-1.54.64-4.82,2.09-5.98,2.53-1.24.47-1.67.99-1.39,1.66.24.59.91,1.19,1.54,1.71,2.22-1.01,10.51-4.76,12.41-5.85,1.01,1.75,1.59,3.15,2.54,5.1-3.01.99-11.69,5.25-12.52,5.59-.16.06-3.75,1.77-5.28,2.76-.81-1.96-1.47-3.2-2.63-5.11l1.85-.77c-1.21-.8-2.39-2.31-2.99-3.75-1-2.4-.38-4.35,3.57-5.99,1.66-.69,8.71-3.61,12.58-5.22.55,2.33.82,3.31,1.61,5.32Z" fill="#f5b6d3"/>
        <path d="M312.84,899.45c1.37,3.25-.3,6.99-3.13,8.18-2.6,1.09-5.96-.97-7.22-3.96-1.1-2.62.86-5.1,3.1-6.04,2.48-1.04,6.05-1.02,7.24,1.82Z" fill="#f5b6d3"/>
        <path d="M311.23,869.11c-.9.82-1.56,1.23-2.16,1.57,1.14.6,2.64,1.75,3.14,2.93.67,1.59-.66,5.33-3.88,6.7-1.65.7-3.76,1.29-5.56-.33-1.66-1.51-3.37-3.57-4.15-4.55-.8.3-1.19.68-1.23,1.04-.04.89.33,2.08,1.34,4.48,0,0-2.52.72-4.33,1.58-1.02-3.49-1.5-5.41-1.53-7.88-.04-1.51,1.39-2.94,3.04-3.64.24-.11,5.13-2.23,8.43-3.63,1.26-.53,2.61-1.28,3.63-1.94,1.18,1.59,1.72,2.32,3.27,3.67ZM303.65,875.5c.78.75,1.82.79,2.53.49.9-.39,1.54-1.18,1.23-1.92-.28-.67-1.29-1.5-1.91-1.67-.37.12-2.53,1.03-3.32,1.37.43.47,1.23,1.48,1.47,1.73Z" fill="#f5b6d3"/>
        <path d="M302.48,852.3c-2.56.96-4.88,1.92-5.28,2.09-1.53.66-4.79,2.14-5.94,2.59-1.23.49-1.66,1.02-1.37,1.68.25.59.92,1.18,1.55,1.68,2.2-1.03,10.45-4.87,12.34-5.98,1.02,1.74,1.62,3.14,2.59,5.08-3,1.02-11.62,5.37-12.45,5.72-.16.07-3.72,1.81-5.25,2.81-.83-1.95-1.5-3.19-2.68-5.08l1.84-.79c-1.22-.79-2.41-2.28-3.02-3.71-1.02-2.39-.42-4.35,3.5-6.03,1.65-.7,8.67-3.71,12.51-5.36.58,2.32.85,3.3,1.66,5.3Z" fill="#f5b6d3"/>
        <path d="M294.6,833.95c-2.56.96-4.89,1.93-5.28,2.09-1.53.66-4.79,2.15-5.94,2.6-1.23.49-1.65,1.02-1.37,1.68.25.59.92,1.17,1.56,1.68,2.2-1.04,10.45-4.88,12.33-6,1.03,1.74,1.63,3.13,2.6,5.07-3,1.03-11.62,5.38-12.45,5.74-.16.07-3.72,1.82-5.25,2.82-.84-1.95-1.51-3.18-2.7-5.07l1.84-.79c-1.22-.78-2.42-2.27-3.04-3.71-1.03-2.39-.43-4.34,3.49-6.03,1.65-.71,8.67-3.72,12.51-5.37.58,2.32.86,3.29,1.68,5.3Z" fill="#f5b6d3"/>
        <path d="M268.42,829.67c.67,1.55.04,3.43-1.41,4.06-1.18.51-3.19-.28-3.84-1.79-.73-1.69-.31-3.4,1.3-4.09,1.33-.58,3.28.28,3.95,1.83ZM290.84,822.96c-3.59,1.37-9.7,4.1-10.1,4.27-.47.21-6.52,3.08-8.4,3.89-.47-1.63-.92-2.66-2.08-5.13,1.28-.38,2.61-.95,3.53-1.3.6-.22,2.38-.94,3.63-1.48.86-.37,3.33-1.44,5.45-2.44,1.97-.93,3.61-1.65,5.06-2.49.68,1.37,1.71,3.1,2.91,4.68Z" fill="#f5b6d3"/>
        <path d="M276.52,805.56c.55-.02,4.57-.63,5.91-1.07.62,1.22,1.34,2.44,2.34,3.79-2.11,1.57-13.45,11.15-15.31,12.65-1.15-1.47-2.03-2.44-3.65-4.01,2-1.39,8.81-5.86,10.07-6.81.22-.14.73-.58.77-.59-.4.04-3.97.93-4.1.95-1.44.23-6.39,1.24-8.16,1.79-.33-2.04-.48-3.16-1.22-5.5,2.42,0,12.53-1.15,13.35-1.19Z" fill="#f5b6d3"/>
        <path d="M275.52,788.55c2.06,4.75-.84,8.58-5.81,10.73-7.56,3.27-10.37.65-11.97-3.03-1.53-3.53,1.52-7.12,7.46-10.05,1.69,3.16,3.14,6.28,3.89,7.8,1.83-.71,2.62-2.54,1.87-4.27-.24-.55-1.18-1.98-3.16-3.65,1.02-.88,1.6-1.57,2.44-2.63,1.97.37,4.64,3.63,5.28,5.1ZM261.62,795.23c.45,1.03,2.49,1.24,4.15.34-.15-.46-.47-1.2-.61-1.4-.23-.42-.77-1.45-1.03-1.95-1.41.7-2.99,1.9-2.51,3.01Z" fill="#f5b6d3"/>
        <path d="M256.95,777.77c2.77-1.11,8.37-3.44,11.78-5.22.49,2.32.82,3.18,1.62,5.36-2.45.89-7.16,2.79-7.63,2.99-.82.36-4.17,1.76-4.83,2.05-1.72.74-4.02,1.78-6.18,2.8-.25-2.2-1.43-5.23-1.43-5.23l1.68-.73c-.98-.45-2.2-1.54-3.2-3.11,1.58-1.08,2.25-1.67,3.93-3.27,1.56,3.3,2.91,4.15,4.25,4.36Z" fill="#f5b6d3"/>
        <path d="M264.77,760.98c-1.65.8-2.38,1.28-4.22,2.6-1.09-2.33-2.17-4.08-3.23-3.63-.94.4-1.32,1.35-1.69,3.21-.43,2.14-.86,4.38-3.64,5.57-3.92,1.68-6.45-1.51-9.25-7.28,1.26-.54,2.85-1.36,3.97-2.1,1.37,3.08,2.59,4.73,3.29,4.43.24-.1.38-.73.45-1.33.45-2.42.66-5.6,4.74-7.35,3.06-1.31,6.7.14,9.58,5.88Z" fill="#f5b6d3"/>
        <path d="M255.48,739.47c-.9.82-1.57,1.23-2.16,1.57,1.14.6,2.64,1.76,3.14,2.94.67,1.59-.67,5.33-3.89,6.69-1.65.7-3.77,1.28-5.57-.35-1.66-1.52-3.36-3.59-4.15-4.56-.8.29-1.2.68-1.23,1.04-.04.89.32,2.08,1.34,4.48,0,0-2.52.71-4.34,1.57-1.01-3.49-1.5-5.41-1.52-7.88-.03-1.51,1.4-2.94,3.05-3.64.24-.1,5.14-2.21,8.44-3.6,1.26-.53,2.61-1.28,3.63-1.92,1.18,1.59,1.72,2.32,3.26,3.67ZM247.88,745.85c.78.76,1.82.79,2.53.5.9-.38,1.54-1.17,1.23-1.91-.28-.67-1.28-1.5-1.91-1.67-.37.11-2.53,1.03-3.32,1.36.43.47,1.23,1.48,1.47,1.73Z" fill="#f5b6d3"/>
        <path d="M228.44,736.48c.64,1.56-.01,3.43-1.47,4.03-1.18.49-3.18-.33-3.81-1.85-.7-1.7-.25-3.41,1.36-4.07,1.34-.55,3.28.34,3.92,1.9ZM250.97,730.13c-3.61,1.31-9.77,3.94-10.16,4.11-.47.19-6.57,2.97-8.46,3.75-.45-1.64-.87-2.67-2-5.16,1.28-.36,2.62-.91,3.54-1.25.61-.21,2.4-.9,3.66-1.42.87-.36,3.35-1.39,5.49-2.35,1.98-.91,3.64-1.59,5.1-2.41.66,1.38,1.66,3.13,2.83,4.73Z" fill="#f5b6d3"/>
        <path d="M232.54,719.76c2.8-1.04,8.45-3.22,11.91-4.91.43,2.33.74,3.2,1.48,5.4-2.47.82-7.23,2.6-7.71,2.79-.83.33-4.21,1.65-4.88,1.92-1.74.7-4.06,1.67-6.25,2.64-.2-2.2-1.29-5.26-1.29-5.26l1.7-.68c-.97-.48-2.16-1.59-3.12-3.19,1.61-1.03,2.3-1.61,4.02-3.16,1.48,3.33,2.8,4.22,4.14,4.46Z" fill="#f5b6d3"/>
        <path d="M237.99,698.79c1.86,4.82-1.19,8.52-6.25,10.47-7.68,2.95-10.38.22-11.82-3.52-1.38-3.59,1.81-7.05,7.86-9.72,1.56,3.22,2.88,6.4,3.57,7.94,1.86-.63,2.72-2.42,2.05-4.18-.22-.56-1.1-2.02-3.01-3.78,1.05-.83,1.66-1.5,2.55-2.52,1.96.45,4.48,3.81,5.06,5.3ZM223.84,704.88c.4,1.05,2.44,1.34,4.13.51-.13-.46-.42-1.21-.55-1.42-.21-.43-.71-1.49-.95-1.99-1.44.64-3.06,1.78-2.63,2.9Z" fill="#f5b6d3"/>
        <path d="M219.56,675.85c1.17,3.33-.72,6.96-3.61,7.98-2.65.93-5.89-1.32-6.97-4.39-.94-2.68,1.17-5.04,3.46-5.84,2.53-.89,6.1-.66,7.12,2.25Z" fill="#f5b6d3"/>
        <path d="M220.34,645.46c-.98.73-1.67,1.08-2.3,1.36,1.08.71,2.47,1.99,2.85,3.22.52,1.64-1.16,5.24-4.5,6.3-1.71.54-3.87.93-5.51-.86-1.51-1.66-3.01-3.88-3.7-4.92-.83.22-1.25.56-1.32.92-.13.88.13,2.1.91,4.59,0,0-2.58.48-4.47,1.16-.68-3.57-.99-5.53-.78-7.99.11-1.5,1.67-2.8,3.38-3.34.24-.08,5.32-1.72,8.74-2.81,1.3-.41,2.72-1.03,3.8-1.58,1.03,1.69,1.5,2.47,2.91,3.96ZM212.19,651.1c.71.83,1.74.96,2.47.73.94-.3,1.65-1.02,1.4-1.79-.22-.69-1.14-1.62-1.74-1.84-.38.08-2.62.78-3.43,1.04.38.51,1.09,1.59,1.3,1.86Z" fill="#f5b6d3"/>
        <path d="M211.51,620.35c-1.47.43-4.72,1.32-4.8,1.34-1.39.4-6.31,1.82-7.21,2.08-.74.21-.99.58-.75,1.38.17.58.48,1.2.75,1.53,2.32-.71,10.66-3.2,12.29-3.84.5,1.73,1.2,3.53,1.97,5.44-1.72.33-3.8.97-4.01,1.03-1.31.38-7.86,2.3-8.76,2.56-.78.22-1.04.84-.9,1.34.15.54.47,1.32.76,1.7,0,0,9.98-2.63,14.5-4.18.07,2.23.31,3.7.57,5.5-2.32.58-6.31,1.65-6.56,1.72l-11.96,3.45c-.2-1.9-.38-3.01-.77-4.82l1.18-.38c-.86-.67-2.15-2.38-2.63-4.03-.4-1.39.01-2.42,1.04-3.47.1-.11.32-.26.32-.26-.7-.42-2.47-2.87-3.03-4.8-.82-2.85.55-3.95,3.9-4.92l11.96-3.45c.65,1.65,1.36,3.32,2.13,5.05Z" fill="#f5b6d3"/>
        <path d="M206.63,602.27c.66,2.48.07,5.08-2,6.95-1.28,1.17-2.69,2.16-5.12,2.81-6.89,1.82-10.53-.95-11.57-4.86-.97-3.68-.11-8.06,6.16-9.71,6.6-1.75,11.53,1.05,12.53,4.81ZM192.63,606.38c.33,1.24,1.75,1.61,4.8.8,2.93-.77,4.87-2.61,4.51-3.97-.33-1.24-2.33-1.62-5.38-.82-3.3.87-4.28,2.67-3.93,3.98Z" fill="#f5b6d3"/>
        <path d="M201.59,580.82l-1.32.54c.6.8,2.12,3.93,2.34,4.79.34,1.36-.35,2.48-1.39,3.07-.93.52-3.23,1.14-4.43,1.44-1.74.43-6.19,1.63-6.97,1.86-.86.26-2.78.86-4.17,1.25-.38-2.38-.68-3.63-1.27-5.47,2.19-.55,11.49-2.95,11.7-3,.95-.24,1.44-.57,1.3-1.11-.13-.54-.82-1.53-1.16-1.82-1.86.47-6.51,1.58-8.84,2.29-1.02.3-3.31.83-4.44,1.23-.66-1.57-1.26-2.95-2.5-5.08l20.37-5.08c.11,1.83.29,3.44.78,5.09Z" fill="#f5b6d3"/>
        <path d="M185.17,567.78c2.93-.59,8.86-1.86,12.54-2.99.06,2.37.23,3.28.62,5.57-2.57.42-7.55,1.44-8.05,1.56-.87.2-4.42.97-5.13,1.13-1.83.42-4.28,1.02-6.59,1.63.15-2.21-.45-5.41-.45-5.41l1.79-.41c-.89-.62-1.88-1.91-2.59-3.64,1.75-.77,2.52-1.23,4.46-2.5.94,3.53,2.11,4.62,3.39,5.06Z" fill="#f5b6d3"/>
        <path d="M183.45,540.61c.53,3.49-1.99,6.71-5.03,7.17-2.79.43-5.55-2.39-6.04-5.6-.43-2.81,2.08-4.74,4.49-5.1,2.66-.41,6.12.48,6.59,3.53Z" fill="#f5b6d3"/>
        <path d="M188.72,503.53c-1.53.11-4.9.31-4.98.31-1.45.1-6.56.46-7.49.53-.77.06-1.09.36-1.03,1.2.04.6.22,1.27.42,1.66,2.42-.21,11.1-.9,12.84-1.19.12,1.8.43,3.7.78,5.73-1.76-.04-3.93.16-4.14.17-1.36.1-8.17.61-9.11.68-.81.06-1.2.6-1.16,1.12.04.56.18,1.39.38,1.82,0,0,10.32-.49,15.07-1.06-.4,2.2-.47,3.69-.6,5.5-2.39.09-6.52.3-6.78.32l-12.43.88c.21-1.9.26-3.03.26-4.88l1.23-.13c-.7-.83-1.61-2.78-1.73-4.5-.1-1.44.52-2.37,1.75-3.18.12-.09.37-.19.37-.19-.6-.56-1.82-3.33-1.95-5.32-.21-2.96,1.36-3.75,4.85-4l12.43-.88c.29,1.75.63,3.53,1.02,5.39Z" fill="#f5b6d3"/>
        <path d="M189.33,483.68c-1.15.42-1.91.55-2.59.64.83.99,1.79,2.62,1.82,3.9.03,1.72-2.61,4.69-6.11,4.74-1.79.03-3.97-.22-5.03-2.41-.97-2.03-1.78-4.58-2.14-5.78-.85-.03-1.36.18-1.53.5-.37.81-.48,2.05-.43,4.66,0,0-2.61-.28-4.61-.17.37-3.61.63-5.58,1.53-7.88.53-1.41,2.4-2.2,4.19-2.23.26,0,5.59-.13,9.18-.18,1.37-.02,2.9-.2,4.09-.42.5,1.92.73,2.8,1.66,4.62ZM179.91,486.75c.45,1,1.39,1.42,2.16,1.41.98-.01,1.87-.51,1.85-1.31-.01-.72-.63-1.88-1.15-2.27-.39-.04-2.73,0-3.58.02.22.6.58,1.83.72,2.15Z" fill="#f5b6d3"/>
        <path d="M175.73,468.08c2.98.14,9.04.35,12.89.16-.52,2.31-.58,3.23-.76,5.56-2.6-.22-7.68-.45-8.19-.46-.9-.02-4.52-.14-5.25-.15-1.88-.04-4.4-.05-6.79-.03.69-2.11.88-5.35.88-5.35l1.83.04c-.71-.82-1.36-2.32-1.62-4.17,1.88-.32,2.74-.58,4.94-1.34.05,3.65.92,4.99,2.05,5.74Z" fill="#f5b6d3"/>
        <path d="M176.38,451.87c2.98.25,9.03.67,12.88.61-.6,2.29-.69,3.21-.95,5.52-2.59-.31-7.66-.72-8.17-.74-.9-.05-4.51-.3-5.24-.34-1.88-.11-4.39-.21-6.78-.26.76-2.08,1.07-5.31,1.07-5.31l1.83.1c-.68-.84-1.28-2.36-1.47-4.21,1.9-.25,2.76-.49,4.98-1.16-.08,3.65.74,5.01,1.85,5.8Z" fill="#f5b6d3"/>
        <path d="M191.34,435.7c-1.18.3-1.96.35-2.65.37.72,1.07,1.51,2.79,1.39,4.07-.16,1.72-3.1,4.39-6.58,4.08-1.79-.16-3.93-.63-4.75-2.92-.75-2.12-1.29-4.74-1.52-5.97-.85-.12-1.37.04-1.57.34-.46.76-.69,1.99-.93,4.58,0,0-2.57-.55-4.57-.65.75-3.56,1.22-5.48,2.36-7.68.68-1.35,2.62-1.94,4.4-1.78.25.02,5.57.46,9.14.78,1.36.12,2.9.1,4.11,0,.3,1.96.43,2.86,1.16,4.77ZM181.64,437.77c.34,1.04,1.23,1.56,2,1.63.98.09,1.91-.31,1.99-1.11.06-.72-.43-1.93-.9-2.37-.38-.07-2.72-.28-3.57-.36.16.62.39,1.88.49,2.21Z" fill="#f5b6d3"/>
        <path d="M169.08,419.96c-.2,1.67-1.69,2.98-3.26,2.79-1.27-.15-2.61-1.85-2.42-3.48.22-1.83,1.45-3.09,3.19-2.88,1.44.18,2.69,1.9,2.49,3.57ZM191.84,425.46c-3.79-.62-10.45-1.35-10.88-1.4-.51-.06-7.19-.63-9.22-.87.41-1.64.55-2.76.79-5.47,1.29.32,2.73.49,3.7.65.63.12,2.53.39,3.89.55.93.11,3.6.44,5.94.64,2.17.18,3.95.4,5.62.4-.1,1.52-.08,3.54.15,5.5Z" fill="#f5b6d3"/>
        <path d="M193.61,405.98c-2.68-.54-5.16-.96-5.58-1.03-1.64-.25-5.2-.73-6.41-.96-1.3-.24-1.94-.02-2.05.69-.1.63.16,1.48.43,2.26,2.42.29,11.44,1.41,13.63,1.47-.06,2.02-.29,3.52-.49,5.68-3.08-.72-12.7-1.61-13.58-1.75-.17-.03-4.12-.44-5.94-.4.32-2.1.41-3.5.41-5.73l1.98.31c-.62-1.31-.84-3.21-.6-4.76.4-2.57,1.94-3.92,6.16-3.26,1.77.28,9.31,1.45,13.45,2.09-.74,2.28-1.02,3.25-1.39,5.38Z" fill="#f5b6d3"/>
        <path d="M197.35,387.95c-1,5.07-5.56,6.57-10.88,5.52-8.07-1.6-8.89-5.36-8.12-9.29.75-3.77,5.29-4.99,11.84-4.02-.4,3.55-.99,6.95-1.23,8.62,1.91.46,3.6-.59,3.96-2.44.12-.59.15-2.3-.53-4.8,1.33-.14,2.21-.38,3.5-.77,1.41,1.42,1.76,5.62,1.45,7.19ZM182.13,385.54c-.22,1.1,1.35,2.43,3.22,2.64.14-.46.29-1.25.29-1.49.05-.48.2-1.63.26-2.19-1.56-.23-3.54-.13-3.77,1.05Z" fill="#f5b6d3"/>
        <path d="M194.51,358.7c-.9,3.41-4.5,5.36-7.47,4.58-2.72-.72-4.13-4.4-3.3-7.54.72-2.75,3.79-3.52,6.15-2.9,2.6.68,5.42,2.88,4.63,5.86Z" fill="#f5b6d3"/>
        <path d="M213.97,326.65c-1.45-.5-4.62-1.65-4.7-1.68-1.37-.48-6.21-2.16-7.09-2.47-.73-.25-1.14-.1-1.42.69-.2.57-.3,1.25-.27,1.69,2.31.76,10.56,3.55,12.26,3.98-.59,1.7-1.06,3.58-1.54,5.58-1.6-.73-3.67-1.4-3.87-1.47-1.29-.45-7.75-2.66-8.64-2.97-.77-.27-1.34.08-1.51.58-.18.53-.38,1.35-.36,1.83,0,0,9.67,3.62,14.26,4.97-1.24,1.86-1.89,3.21-2.72,4.83-2.23-.86-6.11-2.3-6.35-2.38l-11.77-4.1c.94-1.67,1.43-2.68,2.16-4.38l1.18.37c-.31-1.04-.38-3.19.19-4.82.47-1.36,1.41-1.97,2.86-2.23.15-.03.42-.03.42-.03-.33-.75-.36-3.77.3-5.67.97-2.8,2.73-2.91,6.03-1.76l11.77,4.1c-.42,1.72-.81,3.49-1.19,5.36Z" fill="#f5b6d3"/>
        <path d="M221.03,309.68c-2,4.76-6.78,5.32-11.77,3.22-7.59-3.19-7.64-7.03-6.09-10.72,1.49-3.54,6.19-3.82,12.42-1.56-1.11,3.4-2.36,6.61-2.94,8.19,1.78.83,3.64.14,4.37-1.59.23-.55.61-2.22.45-4.81,1.34.13,2.24.07,3.59-.06,1.1,1.68.59,5.85-.03,7.33ZM206.59,304.27c-.43,1.03.83,2.65,2.62,3.23.23-.43.54-1.16.59-1.4.15-.46.52-1.56.7-2.1-1.49-.54-3.44-.84-3.91.27Z" fill="#f5b6d3"/>
        <path d="M216.55,288.67c2.65,1.37,8.07,4.09,11.65,5.51-1.43,1.89-1.87,2.7-3,4.73-2.27-1.28-6.79-3.6-7.25-3.83-.81-.39-4.05-2.01-4.7-2.33-1.69-.82-3.97-1.88-6.16-2.85,1.5-1.63,3.03-4.5,3.03-4.5l1.65.8c-.3-1.04-.27-2.67.26-4.46,1.85.49,2.74.61,5.04.84-1.47,3.34-1.24,4.92-.52,6.07Z" fill="#f5b6d3"/>
        <path d="M238.67,276.18c-5.16,6.63-9.55,7.68-15.05,4.65-2.24-1.24-4.1-2.99-4.79-4.66-1.09-2.62-1.01-4.63,1.18-10.19l4.4,1.74c-.74,1.52-1.17,2.47-1.37,3.27-.44,1.86.37,3.5,2.87,4.88,2.17,1.2,4.81,1.97,6.86-.24.84-.91,1.44-1.82,2.02-2.87,1.56,1.59,2.47,2.42,3.87,3.42Z" fill="#f5b6d3"/>
        <path d="M223.14,255.72c-.88,1.43-2.79,2-4.13,1.17-1.09-.67-1.6-2.77-.74-4.17.97-1.57,2.61-2.2,4.1-1.28,1.23.76,1.65,2.85.77,4.28ZM241.51,270.23c-3.18-2.15-8.93-5.59-9.29-5.82-.43-.27-6.26-3.58-8.01-4.65,1.06-1.32,1.65-2.27,3.01-4.64,1.04.83,2.28,1.59,3.09,2.14.52.37,2.14,1.41,3.3,2.13.8.49,3.09,1.9,5.13,3.06,1.9,1.07,3.42,2.01,4.94,2.71-.73,1.34-1.56,3.18-2.17,5.06Z" fill="#f5b6d3"/>
        <path d="M247.06,241.66c-1.76,3.06-5.75,4-8.41,2.47-2.44-1.4-2.84-5.33-1.22-8.14,1.42-2.46,4.58-2.4,6.69-1.19,2.33,1.34,4.48,4.19,2.94,6.86Z" fill="#f5b6d3"/>
        <path d="M267.77,224.26c-.43.72-1.66,2.65-2.82,4.61-3.27-2.35-12.19-7.47-13.38-8.13-1.05-.57-2.41-1.37-5.04-2.88-1.82-1.03-4.08-2.32-5.9-3.11.94-1.59,1.68-3.01,2.51-4.43,2.71-4.59,7.7-6.16,11.04-4.19,3.6,2.12,3.7,4.47,3.56,6.38,1.68-1.24,4.74-2.32,7.31-.8,3.78,2.23,5.99,6.98,2.71,12.54ZM247.58,212.3c1.34.84,4.39,2.64,5.86,3.5,1-1.69,1.18-3.26-1.1-4.6-2.06-1.21-3.85-.36-4.76,1.1ZM257.04,217.84c.93.6,2.48,1.51,3.69,2.22,1.14.67,2.09,1.24,3.12,1.84.1-.17.24-.32.34-.5,1.02-1.73.74-3.19-2.01-4.82-2.43-1.43-3.98-.49-5.14,1.25Z" fill="#f5b6d3"/>
        <path d="M258.86,194.24c.53.28,1.27.7,1.84,1.01,1.25.74,2.72,1.61,3.82,2.34.35-.63.78-1.49,1.13-2.04.4-.65,1.9-2.88,1.9-2.88,0,0,2.07,2,3.83,3.2-1.02,1.3-1.43,1.89-1.83,2.45-.35.49-.72,1.06-1.07,1.55.51.32,1.14.76,1.79,1.17,2.82,1.77,5.17,3.48,8.49,5.41-1.49,1.58-2.75,3.1-3.92,4.74-3.81-2.53-10.31-7.02-16.42-10.85-2.17-1.36-3.15-1.88-6.65-3.93,1.81-2.89,4.69-7.42,5.99-9.82,1.63,1.02,2.57,1.61,4.39,2.56-1.36,2.17-2.46,3.85-3.28,5.09Z" fill="#f5b6d3"/>
        <path d="M268.94,178.71c.52.3,1.25.75,1.8,1.08,1.22.78,2.66,1.71,3.73,2.48.37-.62.84-1.46,1.2-1.99.43-.63,2.01-2.8,2.01-2.8,0,0,1.99,2.08,3.71,3.34-1.06,1.26-1.5,1.84-1.92,2.38-.37.47-.76,1.03-1.13,1.51.49.33,1.11.8,1.74,1.23,2.76,1.87,5.04,3.66,8.29,5.72-1.55,1.52-2.86,3-4.1,4.58-3.71-2.66-10.04-7.4-16.01-11.45-2.12-1.44-3.08-1.99-6.51-4.17,1.92-2.82,4.97-7.23,6.36-9.58,1.59,1.08,2.51,1.7,4.29,2.72-1.44,2.12-2.6,3.75-3.47,4.95Z" fill="#f5b6d3"/>
        <path d="M297.45,163.84c-2.26,2.71-6.34,2.96-8.7.99-2.16-1.8-1.88-5.74.19-8.24,1.82-2.19,4.92-1.58,6.79-.03,2.06,1.72,3.69,4.9,1.72,7.27Z" fill="#f5b6d3"/>
        <path d="M322.79,150.02c-.48.37-2.2.89-2.95.82.34.38,1.3,1.69,1.3,1.69,0,0-2.24,1.94-3.74,3.74-1.91-2.62-6.65-8.77-6.99-9.21-1.46-1.89-5.9-7.52-6.83-8.74-.21-.27-2.38-2.96-3.45-4.02,1.34-1.35,2.37-2.31,4.03-4.02,1.72,2.5,3.9,5.45,5.38,7.38.61-1.11,1.47-2.16,1.98-2.55,1.2-.93,2.47-1.26,4.86-.46,1.75.64,3.88,2.02,5.91,4.65,4.66,6.05,2.51,9.16.51,10.7ZM313.61,139.21c-.35.27-.92,1.3-1.06,1.84.85,1.17,3.94,5.31,4.91,6.5.72-.12,1.41-.33,2.08-.85.79-.61.75-1.39-1.15-3.86-1.67-2.16-3.73-4.45-4.78-3.64Z" fill="#f5b6d3"/>
        <path d="M339.08,140.85c-2.18,1.35-4.84,1.55-7.23.13-1.49-.88-2.86-1.94-4.19-4.08-3.76-6.05-2.19-10.35,1.25-12.48,3.23-2.01,7.67-2.46,11.09,3.05,3.6,5.8,2.38,11.33-.92,13.38ZM331.03,128.67c-1.09.68-1.02,2.14.64,4.83,1.6,2.57,3.93,3.89,5.12,3.15,1.09-.68.87-2.7-.8-5.38-1.8-2.9-3.8-3.31-4.96-2.59Z" fill="#f5b6d3"/>
        <path d="M357.51,129.54c-1.26-2.42-2.49-4.62-2.7-4.99-.83-1.44-2.7-4.5-3.28-5.59-.63-1.17-1.2-1.52-1.83-1.16-.56.32-1.05,1.06-1.49,1.75,1.29,2.07,6.08,9.79,7.41,11.53-1.6,1.23-2.92,1.99-4.73,3.18-1.37-2.85-6.72-10.9-7.17-11.67-.08-.15-2.24-3.48-3.42-4.87,1.84-1.06,2.98-1.88,4.72-3.28l1,1.74c.63-1.3,1.97-2.67,3.32-3.45,2.25-1.3,4.27-.94,6.4,2.75.9,1.55,4.72,8.16,6.82,11.78-2.24.85-3.17,1.25-5.06,2.29Z" fill="#f5b6d3"/>
        <path d="M377.63,113.92c.29.72,1.32,2.73,2.32,4.51-2.45.68-3.57,1.13-5.19,1.76-.79-1.56-3.14-6.06-3.58-7.04-.13-.32-1.7-3.1-2.33-4.03-.22-.32-.9-.24-1.43.13-.63.43-.97.91-1.21,1.22,1.34,2.67,4.83,9.56,6.46,11.93-2.49.94-3.45,1.45-4.92,2.19-.75-1.58-2.53-4.65-3.46-6.57-1.13-2.29-4-7.49-4.28-8.01-.96-1.81-3.57-6.7-5.86-11.23,1.55-.59,3.41-1.53,4.86-2.11.58,1.09,3.52,6.92,5.21,9.84.61-.81,2.41-2.21,3.33-2.7.57-.3,1.66-.55,2.55-.49.66.04,2.4.84,3.43,2.76.14.26,3.55,6.56,4.09,7.83Z" fill="#f5b6d3"/>
        <path d="M391.31,112.16c-4.65,2.26-8.6-.46-10.97-5.34-3.6-7.41-1.1-10.33,2.5-12.08,3.46-1.68,7.18,1.2,10.36,7.01-3.08,1.83-6.14,3.41-7.61,4.23.78,1.8,2.65,2.51,4.34,1.68.54-.26,1.92-1.27,3.51-3.32.92.97,1.64,1.53,2.73,2.32-.28,1.99-3.42,4.79-4.86,5.5ZM384.03,98.57c-1.01.49-1.13,2.54-.16,4.16.45-.17,1.17-.52,1.37-.67.41-.25,1.42-.84,1.91-1.12-.76-1.38-2.03-2.9-3.12-2.37Z" fill="#f5b6d3"/>
        <path d="M409.91,103.77l-.75-1.21c-.69.72-3.52,2.74-4.33,3.1-1.29.56-2.5.07-3.26-.86-.66-.83-1.65-3-2.15-4.13-.72-1.64-2.63-5.83-2.99-6.56-.39-.81-1.3-2.6-1.92-3.91,2.29-.76,3.46-1.28,5.17-2.16.9,2.07,4.8,10.84,4.89,11.04.39.9.8,1.33,1.31,1.1.51-.22,1.37-1.06,1.6-1.44-.77-1.76-2.63-6.16-3.71-8.34-.46-.96-1.36-3.13-1.95-4.17,1.44-.91,2.7-1.73,4.59-3.3l8.37,19.24c-1.79.41-3.34.85-4.89,1.62Z" fill="#f5b6d3"/>
        <path d="M420.23,85.66c1,2.81,3.11,8.49,4.75,11.98-2.33.4-3.21.69-5.42,1.41-.79-2.49-2.51-7.26-2.69-7.74-.32-.84-1.59-4.23-1.85-4.91-.68-1.75-1.62-4.08-2.55-6.28,2.21-.17,5.28-1.21,5.28-1.21l.66,1.71c.49-.96,1.62-2.13,3.23-3.08,1.01,1.62,1.58,2.32,3.11,4.06-3.35,1.43-4.26,2.74-4.52,4.07Z" fill="#f5b6d3"/>
        <path d="M446.85,80.05c-3.37,1.03-6.93-1-7.83-3.94-.82-2.69,1.57-5.84,4.67-6.79,2.72-.83,4.99,1.37,5.7,3.7.79,2.57.41,6.12-2.54,7.03Z" fill="#f5b6d3"/>
        <path d="M476.55,81.6c-.45-2.69-.94-5.16-1.03-5.58-.34-1.63-1.17-5.12-1.39-6.33-.24-1.3-.67-1.82-1.38-1.67-.63.13-1.33.67-1.96,1.2.59,2.36,2.75,11.19,3.48,13.26-1.9.67-3.39.98-5.48,1.55-.42-3.14-3.02-12.44-3.21-13.32-.04-.17-1.06-4-1.74-5.69,2.08-.44,3.42-.86,5.5-1.65l.42,1.96c1.01-1.04,2.7-1.92,4.23-2.25,2.55-.54,4.35.43,5.24,4.6.37,1.75,1.97,9.22,2.84,13.31-2.39.11-3.4.2-5.52.6Z" fill="#f5b6d3"/>
        <path d="M496.18,79.71c-.56-1.09-.78-1.83-.96-2.49-.88.94-2.37,2.1-3.64,2.28-1.7.24-4.98-2.01-5.46-5.48-.25-1.77-.28-3.97,1.76-5.29,1.89-1.21,4.32-2.33,5.46-2.84-.08-.85-.35-1.33-.69-1.45-.85-.27-2.09-.22-4.67.14,0,0-.05-2.62-.41-4.6,3.63-.08,5.61-.06,8,.55,1.47.35,2.48,2.11,2.73,3.88.04.25.82,5.53,1.32,9.08.19,1.35.56,2.85.93,4.01-1.84.73-2.68,1.07-4.38,2.21ZM491.96,70.74c-.93.56-1.23,1.56-1.13,2.32.14.97.74,1.79,1.53,1.68.71-.1,1.78-.85,2.1-1.42-.01-.39-.34-2.71-.46-3.55-.57.3-1.75.81-2.05.98Z" fill="#f5b6d3"/>
        <path d="M506.79,54.62c-1.68.14-3.26-1.05-3.4-2.62-.11-1.28,1.28-2.93,2.92-3.07,1.84-.16,3.32.79,3.47,2.53.12,1.45-1.31,3.02-2.99,3.16ZM506.03,78.02c-.16-3.84-.81-10.51-.84-10.93-.04-.51-.84-7.16-1.02-9.2,1.69.07,2.81-.02,5.52-.34-.05,1.33.07,2.78.12,3.76.01.64.14,2.56.25,3.92.08.94.31,3.61.58,5.94.26,2.16.41,3.95.75,5.59-1.51.21-3.49.64-5.36,1.27Z" fill="#f5b6d3"/>
        <path d="M518.49,77.82c-.13-1.83-.32-2.68-.86-4.88,2.56-.16,4.59-.52,4.56-1.67-.03-1.02-.77-1.73-2.37-2.75-1.84-1.19-3.75-2.41-3.84-5.44-.12-4.27,3.77-5.45,10.16-5.93.04,1.37.21,3.15.49,4.47-3.36.14-5.35.67-5.33,1.43,0,.26.54.63,1.07.91,2.08,1.31,4.97,2.68,5.09,7.12.1,3.33-2.58,6.18-8.97,6.75Z" fill="#f5b6d3"/>
        <path d="M533.84,77.64c-.01-1.83-.14-2.69-.54-4.93,2.56,0,4.61-.22,4.66-1.37.04-1.02-.66-1.77-2.18-2.9-1.76-1.3-3.59-2.65-3.48-5.68.16-4.26,4.12-5.19,10.53-5.25-.05,1.36,0,3.16.19,4.49-3.36-.08-5.38.31-5.41,1.08-.01.26.5.66,1.01.98,1.99,1.44,4.78,2.99,4.62,7.42-.12,3.32-2.99,5.99-9.4,6.14Z" fill="#f5b6d3"/>
        <path d="M556.58,79.15c-.26-1.19-.3-1.97-.3-2.65-1.09.69-2.82,1.44-4.1,1.3-1.72-.19-4.32-3.19-3.92-6.67.2-1.78.72-3.91,3.03-4.68,2.14-.7,4.77-1.18,6.01-1.39.13-.84-.01-1.37-.31-1.58-.75-.47-1.97-.74-4.56-1.03,0,0,.61-2.55.76-4.55,3.53.83,5.45,1.35,7.62,2.53,1.33.71,1.88,2.66,1.67,4.44-.03.25-.59,5.56-1,9.12-.15,1.36-.16,2.9-.1,4.11-1.96.25-2.86.36-4.8,1.05ZM554.74,69.41c-1.05.31-1.59,1.2-1.67,1.96-.11.98.26,1.92,1.06,2.01.72.08,1.94-.38,2.39-.85.08-.38.35-2.71.44-3.56-.62.14-1.89.34-2.23.44Z" fill="#f5b6d3"/>
        <path d="M574.83,80.68c.65-2.65,1.19-5.11,1.27-5.53.33-1.63.95-5.16,1.23-6.36.3-1.29.1-1.94-.6-2.08-.63-.13-1.49.1-2.27.33-.4,2.4-1.91,11.36-2.06,13.55-2.01-.14-3.51-.44-5.66-.74.86-3.05,2.16-12.62,2.33-13.5.03-.17.61-4.1.65-5.92,2.08.41,3.48.56,5.71.66l-.39,1.97c1.34-.56,3.24-.7,4.78-.4,2.55.51,3.83,2.11,2.99,6.29-.35,1.76-1.84,9.25-2.66,13.34-2.24-.84-3.2-1.16-5.31-1.62Z" fill="#f5b6d3"/>
        <path d="M595.81,87.63c-7.61-3.55-9.61-7.59-7.88-13.62.71-2.46,2-4.67,3.47-5.71,2.31-1.65,4.29-2.02,10.19-1.12l-.71,4.68c-1.64-.38-2.66-.59-3.49-.6-1.91-.01-3.33,1.14-4.11,3.89-.68,2.38-.85,5.13,1.77,6.63,1.07.62,2.09,1,3.24,1.33-1.2,1.88-1.8,2.95-2.46,4.54Z" fill="#f5b6d3"/>
        <path d="M608.25,90.85c-4.85-1.79-5.62-6.53-3.74-11.62,2.85-7.73,6.69-7.95,10.45-6.56,3.61,1.33,4.1,6.02,2.11,12.33-3.45-.96-6.71-2.07-8.32-2.57-.76,1.81.02,3.65,1.79,4.3.56.21,2.25.51,4.82.23-.07,1.34.03,2.24.21,3.58-1.63,1.17-5.82.85-7.33.3ZM613.03,76.19c-1.05-.39-2.61.95-3.12,2.76.44.21,1.19.48,1.43.53.47.13,1.58.45,2.12.6.48-1.51.69-3.48-.44-3.89Z" fill="#f5b6d3"/>
        <path d="M637.4,93.35c-3.16-1.57-4.34-5.49-2.98-8.24,1.25-2.52,5.15-3.15,8.06-1.71,2.55,1.27,2.68,4.43,1.59,6.61-1.19,2.41-3.91,4.72-6.68,3.34Z" fill="#f5b6d3"/>
        <path d="M661.09,116.34c-2.16.96-3.51.48-4.66-.24-.34-.21-1.41-1.53-1.77-2.31-.45.72-1.2,1.92-1.85,2.97-.58.94-1.08,1.89-1.9,3.65-1.88-1.07-3.1-1.68-4.95-2.28,1.27-2.27,5.16-8.35,8.62-13.89,2.22-3.64,6.64-10.8,6.64-10.8,1.56,1.73,2.61,2.78,3.72,3.73-.31.41-.55.81-.79,1.12.64.19,2.5,1.21,3.01,1.53.71.45,1.04.9,1.5,1.59.43.67.8,1.3.83,1.93.13,1.84-.02,2.91-3.23,8.05-1.67,2.68-3.33,4.21-5.18,4.97ZM663.45,102.57c-.27-.17-1.14-.51-1.46-.61-.37.52-1.38,2.06-1.88,2.85-1,1.59-2.74,4.48-3.23,5.33.18.62,1.13,1.51,1.44,1.7.61.38,1.2.05,3.28-3.29,2.01-3.22,3.04-5.25,1.85-5.99Z" fill="#f5b6d3"/>
        <path d="M673.33,126.84c.3-1.18.61-1.89.92-2.51-1.28.13-3.17.02-4.24-.68-1.44-.94-2.43-4.78-.52-7.72.98-1.5,2.4-3.17,4.81-2.83,2.22.33,4.79,1.08,5.98,1.45.5-.69.61-1.23.43-1.55-.46-.76-1.43-1.54-3.61-2.96,0,0,1.69-2.01,2.71-3.73,2.79,2.32,4.27,3.64,5.67,5.67.87,1.23.48,3.22-.5,4.72-.14.21-3.01,4.7-4.97,7.7-.74,1.14-1.45,2.52-1.93,3.63-1.87-.66-2.72-.96-4.76-1.21ZM676.05,117.31c-1.07-.19-1.95.36-2.37,1-.54.82-.62,1.84.05,2.27.6.39,1.9.53,2.52.32.24-.3,1.53-2.26,1.99-2.98-.62-.15-1.84-.54-2.18-.61Z" fill="#f5b6d3"/>
        <path d="M693.13,137.43c-2.19.89-3.52.36-4.65-.4-.33-.22-1.35-1.58-1.69-2.37-.48.71-1.26,1.88-1.95,2.9-.61.92-1.14,1.85-2.02,3.58-1.84-1.13-3.04-1.79-4.87-2.45,1.35-2.23,5.44-8.17,9.08-13.59,2.35-3.56,7-10.56,7-10.56,1.5,1.78,2.51,2.87,3.59,3.85-.32.4-.58.79-.83,1.09.63.21,2.46,1.29,2.96,1.63.7.47,1.01.94,1.45,1.64.41.69.75,1.33.76,1.95.06,1.84-.12,2.9-3.5,7.93-1.76,2.62-3.47,4.09-5.34,4.79ZM695.96,123.75c-.26-.18-1.12-.55-1.44-.66-.39.51-1.45,2.01-1.97,2.79-1.05,1.56-2.89,4.38-3.41,5.21.16.62,1.08,1.55,1.38,1.75.6.4,1.2.08,3.39-3.17,2.12-3.15,3.21-5.14,2.05-5.92Z" fill="#f5b6d3"/>
        <path d="M705.11,148.32c.33-1.17.68-1.87,1.01-2.48-1.29.09-3.17-.09-4.22-.82-1.41-.99-2.26-4.87-.25-7.74,1.03-1.47,2.51-3.09,4.9-2.66,2.21.41,4.75,1.25,5.93,1.66.52-.68.65-1.21.49-1.54-.43-.77-1.38-1.59-3.52-3.09,0,0,1.76-1.95,2.85-3.64,2.71,2.42,4.14,3.79,5.48,5.88.83,1.26.37,3.23-.65,4.7-.15.21-3.18,4.6-5.24,7.53-.78,1.12-1.54,2.47-2.06,3.56-1.84-.72-2.69-1.05-4.72-1.38ZM708.16,138.88c-1.07-.23-1.97.29-2.41.92-.56.8-.68,1.81-.03,2.27.59.42,1.89.59,2.51.4.25-.29,1.6-2.21,2.09-2.91-.61-.17-1.83-.6-2.16-.68Z" fill="#f5b6d3"/>
        <path d="M732.32,155.5c-2.8-2.15-3.2-6.23-1.32-8.67,1.72-2.23,5.67-2.1,8.24-.12,2.25,1.74,1.77,4.86.28,6.79-1.64,2.13-4.76,3.88-7.2,2Z" fill="#f5b6d3"/>
        <path d="M748.96,179.6c-.45-.4-1.27-2-1.34-2.76-.31.41-1.43,1.59-1.43,1.59,0,0-2.32-1.85-4.36-3,2.23-2.35,7.42-8.12,7.79-8.54,1.6-1.77,6.34-7.15,7.36-8.3.23-.25,2.48-2.88,3.33-4.12,1.57,1.07,2.7,1.91,4.68,3.24-2.14,2.14-4.66,4.82-6.28,6.62,1.21.4,2.39,1.06,2.87,1.49,1.13,1.02,1.68,2.2,1.33,4.69-.31,1.84-1.28,4.18-3.51,6.65-5.11,5.67-8.56,4.12-10.44,2.43ZM757.93,168.62c-.33-.29-1.45-.67-2-.71-1,1.05-4.51,4.83-5.51,6,.25.68.58,1.33,1.21,1.89.74.67,1.5.49,3.58-1.83,1.83-2.03,3.7-4.47,2.72-5.36Z" fill="#f5b6d3"/>
        <path d="M769.2,183.5c-2.2,2.02-6.61,6.18-9.18,9.05-1.28-2-1.89-2.69-3.42-4.45,1.98-1.7,5.71-5.14,6.08-5.5.64-.63,3.27-3.12,3.8-3.62,1.35-1.3,3.13-3.09,4.79-4.81,1.02,1.97,3.19,4.39,3.19,4.39l-1.32,1.28c1.08.07,2.6.66,4.1,1.78-1.1,1.57-1.52,2.36-2.52,4.45-2.63-2.53-4.19-2.86-5.52-2.58Z" fill="#f5b6d3"/>
        <path d="M770.53,205.49c.62-1.05,1.13-1.64,1.6-2.14-1.26-.24-3.04-.89-3.87-1.87-1.11-1.32-.95-5.29,1.72-7.55,1.37-1.16,3.21-2.35,5.41-1.33,2.03.95,4.28,2.42,5.31,3.12.68-.52.94-1.01.86-1.36-.22-.86-.93-1.89-2.61-3.88,0,0,2.2-1.44,3.68-2.79,2,3.03,3.04,4.72,3.8,7.07.49,1.43-.46,3.23-1.82,4.38-.2.16-4.24,3.64-6.98,5.96-1.04.88-2.11,2-2.89,2.92-1.6-1.17-2.33-1.7-4.21-2.53ZM775.87,197.13c-.97-.49-1.97-.22-2.56.27-.75.64-1.12,1.58-.61,2.19.47.55,1.67,1.05,2.32,1.03.32-.22,2.11-1.73,2.76-2.28-.55-.32-1.61-1.05-1.92-1.21Z" fill="#f5b6d3"/>
        <path d="M788.08,217.32c-.53.14-4.33,1.59-5.54,2.32-.87-1.05-1.82-2.09-3.1-3.2,1.73-1.99,10.74-13.77,12.23-15.64,1.44,1.19,2.51,1.94,4.42,3.13-1.65,1.79-7.34,7.62-8.37,8.81-.18.18-.59.72-.62.74.38-.13,3.67-1.76,3.8-1.8,1.35-.53,5.98-2.58,7.58-3.5.75,1.92,1.14,2.97,2.37,5.1-2.36.52-11.98,3.81-12.77,4.03Z" fill="#f5b6d3"/>
        <path d="M792.19,233.47c-1.39-2.16-1.62-4.82-.23-7.23.86-1.5,1.9-2.88,4.02-4.24,6-3.84,10.32-2.32,12.5,1.08,2.06,3.21,2.56,7.64-2.89,11.14-5.75,3.68-11.3,2.53-13.4-.75ZM804.26,225.27c-.69-1.08-2.16-1-4.82.7-2.55,1.63-3.83,3.98-3.08,5.16.69,1.08,2.71.83,5.37-.87,2.88-1.84,3.26-3.85,2.52-5Z" fill="#f5b6d3"/>
        <path d="M815.22,253.69c-1.8-3.03-.68-6.97,1.96-8.54,2.42-1.45,6.04.12,7.69,2.91,1.46,2.44-.14,5.17-2.23,6.42-2.31,1.38-5.84,1.86-7.43-.78Z" fill="#f5b6d3"/>
        <path d="M817.34,277.67c1.53-1.01,2.18-1.59,3.84-3.14,1.4,2.16,2.7,3.76,3.69,3.16.88-.53,1.13-1.52,1.24-3.41.14-2.18.26-4.46,2.86-6.02,3.66-2.19,6.59.63,10.15,5.97-1.17.7-2.65,1.73-3.66,2.61-1.77-2.87-3.2-4.34-3.86-3.95-.22.13-.28.78-.27,1.38-.12,2.45.1,5.64-3.71,7.93-2.86,1.71-6.66.76-10.29-4.54Z" fill="#f5b6d3"/>
        <path d="M834.75,304.28c-1.05-1.71-.85-4.56-.18-6-1.95-.16-3.75-.89-4.64-2.32-1.3-2.12-1.35-4.81-.01-7.18.83-1.5,2.14-3.19,3.96-4.31,6.11-3.75,10.4-2.15,12.51,1.3.94,1.53,1.05,3.82.35,5.38,1.56.17,3.45,1.22,4.52,2.96,2.02,3.27-.49,7.26-5.96,10.99-2.12-2.88-4.12-5.88-5.07-7.27-1.78,1.19-1.9,3.42-1.25,4.48.38.61,1.56,1.96,3.75,3.33-1.04,1.16-1.44,1.73-2.06,2.91-2.01-.08-5.13-2.96-5.93-4.26ZM842.11,287.82c-.67-1.09-1.99-1.13-4.86.64-2.58,1.58-4.19,3.37-3.14,5.08.67,1.09,2.77,1.08,5.46-.58,2.95-1.81,3.26-3.98,2.55-5.14ZM847.54,295.67c-.61-.99-2.49-.87-4.17.22.25.41.93,1.59,1.06,1.8.29.39.78,1.02,1.14,1.46,1.89-1.25,2.44-2.72,1.97-3.47Z" fill="#f5b6d3"/>
        <path d="M845.57,321.76l1.08-.92c-.82-.57-3.25-3.06-3.73-3.8-.75-1.18-.45-2.46.35-3.35.72-.78,2.71-2.1,3.75-2.76,1.52-.96,5.36-3.5,6.03-3.96.73-.51,2.36-1.69,3.57-2.5,1.11,2.14,1.79,3.22,2.93,4.78-1.91,1.21-9.97,6.42-10.15,6.53-.83.52-1.19.99-.89,1.46s1.26,1.19,1.67,1.36c1.62-1.03,5.68-3.55,7.67-4.96.88-.6,2.88-1.83,3.83-2.57,1.12,1.28,2.13,2.39,3.97,4.02l-17.73,11.24c-.68-1.7-1.35-3.17-2.35-4.58Z" fill="#f5b6d3"/>
        <path d="M865.26,328.55c-2.55,1.56-7.67,4.8-10.73,7.13-.87-2.2-1.34-3-2.5-5.02,2.27-1.29,6.59-3.95,7.02-4.23.75-.49,3.81-2.44,4.42-2.83,1.57-1.02,3.66-2.43,5.62-3.8.62,2.13,2.28,4.92,2.28,4.92l-1.54,1c1.05.28,2.43,1.15,3.68,2.53-1.38,1.33-1.94,2.03-3.33,3.89-2.09-2.99-3.56-3.61-4.92-3.58Z" fill="#f5b6d3"/>
        <path d="M884.44,327.91c-2.17,2.78-6.25,3.15-8.67,1.26-2.22-1.73-2.06-5.67-.06-8.23,1.75-2.24,4.87-1.73,6.79-.24,2.12,1.65,3.84,4.78,1.95,7.21Z" fill="#f5b6d3"/>
        <path d="M911.84,309.73c-6.15,5.71-10.64,6.06-15.58,2.19-2.02-1.58-3.57-3.61-3.99-5.36-.67-2.76-.26-4.73,2.79-9.87l4.07,2.42c-.97,1.38-1.54,2.25-1.87,3.01-.73,1.77-.2,3.51,2.06,5.27,1.95,1.53,4.44,2.71,6.81.85.97-.76,1.71-1.56,2.45-2.51,1.29,1.82,2.06,2.78,3.28,3.99Z" fill="#f5b6d3"/>
        <path d="M905.06,282.52l-4.73,1.17.27,4.96-3.97.13-.1-7.32,1.13-1.3,6.63-1.44.75,3.8ZM921.27,297.61c-1.15-.4-1.83-.78-2.42-1.14.02,1.29-.26,3.16-1.06,4.17-1.07,1.35-4.99,1.98-7.74-.19-1.41-1.11-2.94-2.68-2.38-5.05.53-2.19,1.52-4.67,1.99-5.83-.65-.56-1.17-.72-1.5-.58-.8.39-1.67,1.29-3.28,3.33,0,0-1.84-1.87-3.47-3.05,2.57-2.56,4.02-3.92,6.17-5.13,1.3-.76,3.25-.19,4.66.92.2.16,4.42,3.43,7.23,5.66,1.07.85,2.38,1.67,3.44,2.26-.83,1.8-1.21,2.62-1.64,4.63ZM912.02,294.03c-.29,1.05.18,1.98.78,2.45.77.61,1.77.79,2.27.16.45-.57.7-1.85.54-2.48-.28-.27-2.12-1.72-2.79-2.25-.21.6-.71,1.79-.81,2.12Z" fill="#f5b6d3"/>
        <path d="M916.69,273.46c.2.16,6.86,5.63,7.35,6.18.28.33,4.48,3.76,7,5.8-2.07,1.21-3.14,2.2-4.19,2.95-1.46-1.18-10.79-8.79-11.49-9.36-.4-.32-4.45-3.53-4.88-3.88-.23-.19-2.68-2.52-3.01-2.94-.2-.16-.74-.65-2.63-2.17,1.63-1,3.13-2.05,4.24-2.75,1.36,1.1,6.59,5.36,7.59,6.17Z" fill="#f5b6d3"/>
        <path d="M918.53,263.07c-1.07,1.3-3.03,1.59-4.25.59-.99-.82-1.2-2.97-.15-4.23,1.17-1.42,2.89-1.82,4.24-.7,1.12.93,1.24,3.05.17,4.35ZM934.71,280c-2.86-2.57-8.07-6.78-8.4-7.05-.39-.32-5.71-4.41-7.29-5.72,1.24-1.16,1.95-2.02,3.62-4.17.92.96,2.04,1.89,2.77,2.55.47.44,1.92,1.69,2.97,2.56.72.6,2.8,2.31,4.65,3.75,1.73,1.32,3.1,2.47,4.52,3.37-.9,1.23-1.98,2.93-2.85,4.71Z" fill="#f5b6d3"/>
        <path d="M946.72,264.44c-1.98-1.89-3.85-3.57-4.17-3.85-1.25-1.09-4.01-3.39-4.91-4.23-.97-.9-1.63-1.05-2.1-.51-.42.48-.66,1.34-.85,2.13,1.89,1.54,8.92,7.31,10.74,8.52-1.12,1.68-2.13,2.82-3.45,4.54-2.22-2.26-9.88-8.15-10.55-8.74-.13-.11-3.25-2.57-4.81-3.51,1.4-1.6,2.23-2.74,3.42-4.62l1.51,1.32c.18-1.44,1.01-3.16,2.03-4.34,1.72-1.96,3.74-2.27,6.95.54,1.35,1.18,7.1,6.2,10.25,8.95-1.84,1.53-2.6,2.2-4.05,3.8Z" fill="#f5b6d3"/>
        <path d="M958.98,238.47c-2.5,2.49-6.59,2.35-8.76.17-1.99-1.99-1.35-5.89.95-8.18,2.01-2.01,5.05-1.11,6.77.61,1.9,1.91,3.22,5.22,1.04,7.4Z" fill="#f5b6d3"/>
        <path d="M984.94,224.94c-.45.4-2.13,1.05-2.89,1.05.37.35,1.43,1.58,1.43,1.58,0,0-2.09,2.11-3.44,4.02-2.11-2.46-7.31-8.22-7.68-8.64-1.6-1.77-6.46-7.04-7.49-8.18-.23-.25-2.6-2.77-3.75-3.74,1.23-1.45,2.18-2.48,3.71-4.32,1.91,2.35,4.31,5.13,5.94,6.94.52-1.16,1.3-2.26,1.78-2.69,1.13-1.02,2.37-1.44,4.81-.83,1.8.5,4.03,1.71,6.26,4.18,5.12,5.67,3.21,8.94,1.34,10.63ZM974.95,214.88c-.33.3-.82,1.37-.92,1.92.94,1.1,4.34,4.99,5.4,6.1.7-.17,1.38-.44,2-1.01.74-.67.64-1.44-1.44-3.75-1.83-2.03-4.07-4.15-5.05-3.26Z" fill="#f5b6d3"/>
        <path d="M990.39,205.06c1.91,2.3,5.84,6.91,8.58,9.61-2.06,1.18-2.78,1.75-4.61,3.19-1.6-2.06-4.85-5.96-5.19-6.35-.59-.67-2.95-3.43-3.42-3.97-1.24-1.41-2.92-3.28-4.56-5.03,2.02-.92,4.54-2.96,4.54-2.96l1.21,1.38c.12-1.07.79-2.56,1.98-4,1.51,1.17,2.28,1.63,4.31,2.74-2.66,2.5-3.06,4.04-2.85,5.39Z" fill="#f5b6d3"/>
        <path d="M1011.7,203.04c-1.94,1.68-4.54,2.28-7.12,1.25-1.61-.64-3.12-1.47-4.77-3.38-4.66-5.39-3.77-9.88-.71-12.53,2.88-2.49,7.19-3.62,11.43,1.29,4.46,5.17,4.11,10.83,1.18,13.37ZM1001.86,192.25c-.97.84-.68,2.28,1.39,4.67,1.98,2.29,4.48,3.23,5.54,2.32.97-.84.44-2.8-1.63-5.19-2.23-2.59-4.27-2.68-5.3-1.79Z" fill="#f5b6d3"/>
        <path d="M1028.06,177.02c-2.71,2.26-6.78,1.76-8.75-.59-1.81-2.16-.82-5.98,1.67-8.06,2.19-1.82,5.13-.67,6.69,1.2,1.73,2.06,2.76,5.48.39,7.46Z" fill="#f5b6d3"/>
        <path d="M1055.69,172.07c-5.02.12-6.47-1.58-7.6-3.78-.97-1.9-1.57-3.08-2.58-5.05-.49-.95-1.16-2.19-1.55-2.94-.3.2-.96.59-1.47.99-.83-1.35-1.53-2.28-2.17-3.54,1.17-.79,1.53-.88,1.88-1.16-.06-.21-.18-.63-.26-.78-.41-1.08-.61-1.46-1.25-3.24,0,0,2.02-1.85,3.91-3.97.83,1.63,1.87,3.93,2.5,5.34.67-.44,1.52-.97,2.46-1.79,0,0,.95,2.39,2.12,4.14-1.66.7-2.45,1.2-3,1.53.31.61.82,1.69.88,1.8.43.93,1.87,3.93,3.08,6.04.52.93,2.16,1.24,4.41,1.05,0,0-1.21,3.54-1.36,5.34Z" fill="#f5b6d3"/>
        <path d="M1068.88,164.61c-2.39.92-5.04.6-7.13-1.25-1.3-1.15-2.44-2.45-3.34-4.8-2.55-6.65-.19-10.57,3.59-12.02,3.55-1.36,8-.96,10.32,5.1,2.44,6.38.19,11.58-3.44,12.96ZM1063.29,151.13c-1.2.46-1.41,1.91-.28,4.86,1.08,2.83,3.12,4.56,4.43,4.06,1.2-.46,1.36-2.49.23-5.44-1.22-3.19-3.11-3.97-4.38-3.49Z" fill="#f5b6d3"/>
        <path d="M1089.37,158.6l-.55-1.31c-.79.6-3.9,2.16-4.75,2.39-1.36.35-2.48-.32-3.09-1.36-.53-.92-1.17-3.22-1.48-4.42-.46-1.73-1.69-6.17-1.94-6.95-.26-.86-.88-2.77-1.29-4.16,2.38-.4,3.62-.72,5.45-1.33.57,2.19,3.07,11.46,3.12,11.66.25.95.58,1.44,1.13,1.3.54-.14,1.52-.84,1.8-1.18-.48-1.86-1.65-6.49-2.37-8.82-.31-1.02-.86-3.3-1.28-4.43,1.56-.67,2.93-1.29,5.04-2.55l5.29,20.31c-1.83.12-3.43.32-5.08.84Z" fill="#f5b6d3"/>
        <path d="M1086.04,1267.54c-2.28-1.93-6.95-5.79-10.11-7.98,1.82-1.52,2.43-2.2,3.98-3.94,1.93,1.76,5.81,5.03,6.21,5.35.7.56,3.5,2.87,4.07,3.32,1.46,1.18,3.45,2.72,5.36,4.16-1.82,1.25-3.96,3.7-3.96,3.7l-1.43-1.14c.06,1.08-.33,2.66-1.25,4.28-1.69-.9-2.53-1.21-4.73-1.95,2.18-2.92,2.31-4.51,1.87-5.8Z" fill="#f5b6d3"/>
        <path d="M1064.55,1272.44c1.15.4,1.82.79,2.41,1.16,0-1.29.29-3.16,1.09-4.15,1.08-1.34,5-1.94,7.73.25,1.4,1.12,2.91,2.71,2.34,5.07-.55,2.18-1.56,4.66-2.05,5.81.64.57,1.17.73,1.5.59.8-.38,1.68-1.27,3.31-3.3,0,0,1.83,1.88,3.44,3.08-2.59,2.54-4.06,3.89-6.21,5.08-1.31.75-3.25.17-4.65-.96-.2-.16-4.38-3.47-7.17-5.72-1.06-.86-2.36-1.69-3.41-2.28.84-1.79,1.22-2.61,1.68-4.61ZM1073.76,1276.09c.3-1.05-.16-1.98-.76-2.46-.76-.62-1.76-.81-2.27-.18-.45.56-.71,1.84-.56,2.47.28.28,2.1,1.75,2.77,2.28.21-.6.72-1.78.83-2.11Z" fill="#f5b6d3"/>
        <path d="M1058.46,1280.92c2.89,2.52,8.17,6.65,8.51,6.92.4.32,5.78,4.32,7.38,5.61-1.22,1.18-1.93,2.05-3.56,4.23-.93-.95-2.06-1.86-2.81-2.5-.47-.43-1.95-1.66-3.01-2.52-.73-.58-2.83-2.27-4.72-3.67-1.75-1.29-3.15-2.42-4.57-3.3.89-1.24,1.94-2.96,2.78-4.75ZM1074.9,1297.58c1.05-1.31,3.02-1.64,4.25-.65,1,.8,1.24,2.95.22,4.23-1.16,1.44-2.87,1.86-4.23.77-1.14-.91-1.29-3.03-.23-4.34Z" fill="#f5b6d3"/>
        <path d="M1046.78,1296.92c2.06,1.8,3.99,3.41,4.32,3.67,1.3,1.04,4.15,3.22,5.09,4.03,1.01.86,1.67.98,2.12.42.4-.5.6-1.37.75-2.17-1.95-1.46-9.22-6.92-11.09-8.06,1.05-1.73,2-2.91,3.25-4.68,2.32,2.16,10.21,7.72,10.91,8.28.13.11,3.35,2.43,4.96,3.3-1.33,1.65-2.11,2.83-3.21,4.77l-1.57-1.25c-.12,1.44-.87,3.2-1.85,4.42-1.62,2.03-3.63,2.43-6.96-.24-1.4-1.12-7.36-5.9-10.62-8.51,1.78-1.61,2.5-2.31,3.89-3.97Z" fill="#f5b6d3"/>
        <path d="M1034.68,1311.25c3.22-4.04,7.97-3.28,12.2.1,6.44,5.14,5.44,8.85,2.95,11.98-2.4,3.01-7,2-12.37-1.87,1.99-2.98,4.07-5.72,5.05-7.09-1.48-1.29-3.47-1.13-4.64.35-.37.47-1.19,1.97-1.74,4.51-1.25-.49-2.13-.68-3.47-.92-.6-1.92,1.02-5.8,2.02-7.05ZM1047.1,1320.39c.7-.88-.08-2.78-1.65-3.83-.33.35-.83.97-.94,1.19-.27.4-.93,1.37-1.24,1.83,1.28.92,3.08,1.74,3.84.8Z" fill="#f5b6d3"/>
        <path d="M1024.62,1338.99c2.19-2.76,6.27-3.1,8.68-1.19,2.21,1.75,2.03,5.69.01,8.23-1.77,2.23-4.89,1.7-6.79.19-2.11-1.67-3.81-4.81-1.9-7.23Z" fill="#f5b6d3"/>
        <path d="M994.96,1361.98c1.21.95,3.84,3.06,3.9,3.12,1.14.9,5.16,4.06,5.91,4.64.6.48,1.04.47,1.57-.2.37-.47.69-1.09.8-1.51-1.94-1.47-8.83-6.78-10.31-7.74,1.11-1.42,2.17-3.03,3.26-4.77,1.27,1.21,3.01,2.52,3.18,2.65,1.08.85,6.47,5.03,7.21,5.61.64.5,1.29.36,1.62-.05.35-.44.8-1.16.94-1.61,0,0-7.97-6.57-11.88-9.33,1.77-1.36,2.83-2.42,4.14-3.68,1.83,1.54,5.03,4.16,5.23,4.32l9.8,7.69c-1.43,1.27-2.23,2.07-3.47,3.44l-1-.73c-.04,1.09-.68,3.14-1.74,4.49-.89,1.13-1.97,1.4-3.42,1.18-.15-.02-.4-.11-.4-.11.07.82-.89,3.68-2.13,5.26-1.83,2.33-3.53,1.86-6.28-.3l-9.8-7.7c.96-1.49,1.9-3.04,2.87-4.68Z" fill="#f5b6d3"/>
        <path d="M983.11,1376.61c3.17-4.08,7.93-3.37,12.2-.03,6.5,5.07,5.55,8.8,3.08,11.95-2.36,3.04-6.97,2.08-12.39-1.74,1.95-3,4.01-5.76,4.97-7.14-1.5-1.27-3.48-1.09-4.64.39-.37.48-1.17,1.99-1.69,4.53-1.25-.47-2.14-.66-3.48-.89-.63-1.9.95-5.81,1.94-7.07ZM995.63,1385.62c.69-.88-.11-2.78-1.69-3.8-.33.35-.82.99-.93,1.2-.26.4-.91,1.37-1.22,1.84,1.3.91,3.11,1.71,3.85.76Z" fill="#f5b6d3"/>
        <path d="M982.55,1398.1c-2.31-1.89-7.05-5.67-10.26-7.8,1.8-1.55,2.39-2.25,3.92-4.01,1.96,1.72,5.9,4.93,6.3,5.24.71.55,3.55,2.8,4.12,3.25,1.49,1.15,3.5,2.66,5.44,4.06-1.81,1.29-3.9,3.77-3.9,3.77l-1.45-1.12c.08,1.08-.29,2.67-1.19,4.31-1.7-.87-2.55-1.17-4.76-1.87,2.13-2.96,2.24-4.55,1.77-5.83Z" fill="#f5b6d3"/>
        <path d="M958.66,1406.49c6.1-5.75,10.6-6.14,15.56-2.31,2.02,1.56,3.59,3.58,4.03,5.33.68,2.75.29,4.72-2.72,9.88l-4.08-2.39c.95-1.39,1.53-2.26,1.84-3.02.72-1.77.17-3.51-2.09-5.26-1.96-1.51-4.46-2.67-6.81-.8-.97.77-1.7,1.57-2.43,2.52-1.3-1.81-2.07-2.76-3.3-3.96Z" fill="#f5b6d3"/>
        <path d="M954.96,1412.35c2.95,2.47,8.31,6.49,8.64,6.74.41.31,5.87,4.2,7.49,5.45-1.19,1.21-1.88,2.09-3.47,4.3-.95-.93-2.11-1.82-2.86-2.44-.48-.42-1.98-1.62-3.06-2.46-.74-.57-2.88-2.21-4.78-3.58-1.77-1.26-3.19-2.35-4.64-3.21.86-1.26,1.88-3,2.68-4.81ZM971.74,1428.67c1.02-1.33,2.98-1.7,4.23-.74,1.02.78,1.3,2.92.3,4.22-1.12,1.46-2.82,1.92-4.21.86-1.15-.89-1.35-3.01-.33-4.34Z" fill="#f5b6d3"/>
        <path d="M946.14,1439.98c2.13-2.8,6.2-3.22,8.65-1.37,2.24,1.71,2.13,5.65.17,8.23-1.72,2.27-4.85,1.79-6.78.33-2.14-1.63-3.9-4.74-2.03-7.19Z" fill="#f5b6d3"/>
        <path d="M599.89,1436.3l-1.03.98c.85.53,3.41,2.89,3.92,3.61.81,1.14.58,2.44-.18,3.37-.67.82-2.6,2.24-3.61,2.96-1.46,1.04-5.17,3.77-5.81,4.27-.71.55-2.28,1.81-3.43,2.68-1.22-2.09-1.96-3.13-3.17-4.63,1.84-1.31,9.63-6.93,9.8-7.06.8-.57,1.14-1.05.82-1.51s-1.32-1.12-1.74-1.27c-1.57,1.11-5.49,3.85-7.4,5.35-.85.65-2.79,1.98-3.69,2.77-1.18-1.23-2.25-2.29-4.17-3.82l17.12-12.16c.76,1.67,1.52,3.1,2.58,4.46Z" fill="#f5b6d3"/>
        <path d="M588.19,1420.62c-2.32,1.45-4.42,2.84-4.77,3.08-1.37.94-4.28,3.04-5.33,3.71-1.11.72-1.42,1.32-1.02,1.91.36.53,1.13.97,1.86,1.35,1.96-1.45,9.29-6.82,10.93-8.29,1.34,1.5,2.2,2.76,3.53,4.47-2.73,1.59-10.34,7.55-11.08,8.05-.14.1-3.3,2.51-4.59,3.79-1.21-1.75-2.1-2.83-3.63-4.45l1.65-1.14c-1.35-.53-2.82-1.76-3.7-3.04-1.47-2.15-1.27-4.18,2.25-6.6,1.48-1.02,7.78-5.35,11.22-7.71,1.03,2.16,1.48,3.06,2.67,4.86Z" fill="#f5b6d3"/>
        <path d="M561.64,1421.31c.94,1.4.67,3.37-.64,4.25-1.06.71-3.19.31-4.1-1.06-1.03-1.53-.93-3.29.52-4.27,1.2-.81,3.28-.32,4.22,1.08ZM582.45,1410.6c-3.27,2.01-8.79,5.81-9.14,6.05-.42.29-5.85,4.22-7.54,5.36-.76-1.52-1.39-2.45-2.98-4.66,1.18-.6,2.38-1.42,3.22-1.93.55-.32,2.17-1.36,3.3-2.12.78-.52,3-2.02,4.91-3.4,1.76-1.28,3.25-2.28,4.51-3.37.92,1.22,2.25,2.73,3.72,4.07Z" fill="#f5b6d3"/>
        <path d="M577.76,1390.55c-2.81,1.47-5.12,2.93-6.53,3.81.78.25,1.8,1.11,2.16,1.65.82,1.24.73,3.36.46,4.5-.47,1.99-2.07,4.14-4.89,5.99-6.67,4.38-9.34,3.97-11.34.93-.31-.47-1.2-2.43-1.1-3.45-.46.3-1.53,1.01-1.53,1.01,0,0-1.77-2.29-3.46-3.77,1.93-1.26,12.32-7.9,14.42-9.29.54-.35,7-4.65,9.36-6.34.85,1.98,1.31,2.92,2.45,4.96ZM560.9,1404.27c.42.64,1.53,0,3.96-1.59,2.78-1.82,4.84-3.66,3.98-4.96-.2-.3-.65-.83-.86-.92l-7.59,4.84c-.2,1.09.22,2.2.51,2.64Z" fill="#f5b6d3"/>
        <path d="M560.53,1377.69l-1.08.93c.82.56,3.27,3.04,3.75,3.78.76,1.18.46,2.46-.33,3.35-.71.79-2.7,2.11-3.75,2.78-1.51.97-5.34,3.53-6,4-.73.52-2.36,1.7-3.56,2.52-1.12-2.13-1.81-3.21-2.96-4.76,1.9-1.22,9.94-6.48,10.12-6.59.83-.53,1.19-1,.88-1.47s-1.27-1.19-1.67-1.35c-1.62,1.04-5.66,3.58-7.64,5-.88.61-2.88,1.84-3.81,2.59-1.12-1.27-2.14-2.38-3.99-4.01l17.67-11.34c.69,1.7,1.37,3.17,2.37,4.57Z" fill="#f5b6d3"/>
        <path d="M550.58,1362.21c2.75,4.38.46,8.61-4.13,11.49-6.97,4.38-10.15,2.21-12.28-1.19-2.05-3.26.42-7.27,5.85-11.06,2.15,2.86,4.05,5.74,5.02,7.12,1.71-.97,2.21-2.9,1.21-4.49-.32-.51-1.47-1.78-3.68-3.14.87-1.02,1.35-1.79,2.02-2.97,2,.06,5.13,2.88,5.99,4.24ZM537.85,1370.92c.59.95,2.65.85,4.15-.29-.22-.43-.65-1.11-.81-1.29-.29-.38-.98-1.32-1.31-1.78-1.29.91-2.66,2.34-2.02,3.36Z" fill="#f5b6d3"/>
        <path d="M527.95,1343.42c1.83,3.01.74,6.96-1.89,8.55-2.41,1.46-6.04-.08-7.73-2.85-1.48-2.43.1-5.17,2.18-6.43,2.3-1.4,5.83-1.91,7.44.73Z" fill="#f5b6d3"/>
        <path d="M518.47,1311.63c2.36.14,3.33,1.2,4.03,2.37.2.34.54,2,.51,2.86.74-.43,1.94-1.15,3.01-1.78.95-.56,1.83-1.18,3.36-2.36,1.18,1.82,1.98,2.93,3.34,4.31-2.18,1.43-8.42,5.03-14.04,8.36-3.65,2.21-10.86,6.52-10.86,6.52-.59-2.26-1.03-3.67-1.58-5.02.46-.22.86-.47,1.21-.63-.47-.47-1.66-2.23-1.97-2.74-.43-.72-.51-1.28-.6-2.11-.07-.79-.11-1.52.15-2.09.73-1.69,1.36-2.57,6.57-5.66,2.72-1.61,4.9-2.2,6.88-2.03ZM510.04,1322.77c.16.28.78.98,1.02,1.22.57-.29,2.17-1.2,2.98-1.67,1.62-.95,4.5-2.71,5.32-3.24.12-.63-.31-1.86-.49-2.17-.37-.62-1.04-.59-4.42,1.41-3.27,1.94-5.11,3.26-4.4,4.47Z" fill="#f5b6d3"/>
        <path d="M511.8,1298.4c1.29,2.21,1.4,4.88-.1,7.23-.93,1.46-2.03,2.8-4.21,4.06-6.17,3.58-10.41,1.87-12.44-1.63-1.91-3.29-2.22-7.74,3.39-11,5.91-3.42,11.41-2.03,13.36,1.33ZM499.37,1306.07c.64,1.11,2.11,1.09,4.84-.5,2.62-1.52,4.01-3.81,3.31-5.02-.64-1.11-2.67-.95-5.4.64-2.95,1.71-3.43,3.7-2.75,4.88Z" fill="#f5b6d3"/>
        <path d="M501.22,1279.11l-1.12.87c.79.61,3.1,3.21,3.54,3.97.69,1.22.33,2.48-.51,3.33-.75.75-2.81,1.97-3.88,2.58-1.56.88-5.52,3.23-6.21,3.67-.76.48-2.44,1.58-3.68,2.33-1-2.19-1.64-3.31-2.7-4.92,1.97-1.11,10.27-5.93,10.46-6.04.85-.48,1.23-.93.96-1.42-.28-.49-1.2-1.25-1.6-1.44-1.67.95-5.84,3.28-7.9,4.59-.91.56-2.97,1.69-3.95,2.38-1.05-1.34-2.01-2.5-3.77-4.21l18.25-10.38c.59,1.74,1.2,3.23,2.13,4.69Z" fill="#f5b6d3"/>
        <path d="M481.92,1271.09c2.65-1.39,7.97-4.27,11.19-6.4.73,2.26,1.14,3.08,2.16,5.17-2.35,1.13-6.84,3.51-7.29,3.75-.78.44-3.97,2.17-4.6,2.53-1.64.92-3.82,2.18-5.86,3.42-.48-2.16-1.95-5.06-1.95-5.06l1.6-.89c-1.02-.35-2.34-1.3-3.5-2.77,1.46-1.23,2.07-1.9,3.58-3.66,1.89,3.12,3.32,3.84,4.68,3.9Z" fill="#f5b6d3"/>
        <path d="M481.08,1240.61c.26,5.02-1.4,6.52-3.58,7.71-1.87,1.02-3.04,1.66-4.98,2.72-.94.51-2.16,1.22-2.9,1.63.21.3.61.94,1.03,1.44-1.33.87-2.24,1.59-3.48,2.27-.82-1.15-.92-1.5-1.21-1.85-.21.06-.62.2-.77.28-1.07.45-1.44.65-3.21,1.34,0,0-1.9-1.98-4.07-3.8,1.61-.88,3.88-1.98,5.27-2.65-.46-.66-1.01-1.5-1.85-2.42,0,0,2.36-1.02,4.08-2.23.75,1.64,1.27,2.42,1.61,2.96.6-.33,1.67-.86,1.78-.92.92-.46,3.88-1.98,5.96-3.25.92-.55,1.18-2.2.93-4.44,0,0,3.57,1.11,5.38,1.22Z" fill="#f5b6d3"/>
        <path d="M472.19,1227.45c1.21,2.26,1.25,4.93-.33,7.23-.97,1.43-2.12,2.73-4.33,3.92-6.27,3.37-10.46,1.53-12.38-2.03-1.8-3.35-1.97-7.81,3.74-10.88,6.01-3.23,11.46-1.66,13.3,1.77ZM459.54,1234.7c.61,1.13,2.08,1.16,4.86-.33,2.67-1.43,4.13-3.68,3.46-4.91-.61-1.13-2.64-1.04-5.42.46-3.01,1.62-3.54,3.59-2.9,4.79Z" fill="#f5b6d3"/>
        <path d="M444.65,1223.75c.79,1.49.31,3.41-1.08,4.16-1.13.6-3.2-.03-3.97-1.48-.86-1.63-.58-3.37.97-4.19,1.28-.68,3.29.02,4.08,1.51ZM466.46,1215.27c-3.47,1.66-9.34,4.86-9.72,5.07-.45.24-6.25,3.59-8.06,4.55-.6-1.59-1.12-2.58-2.47-4.95,1.24-.48,2.52-1.16,3.41-1.58.58-.26,2.3-1.12,3.51-1.76.83-.44,3.2-1.7,5.24-2.87,1.88-1.09,3.47-1.93,4.84-2.88.79,1.3,1.95,2.95,3.27,4.43Z" fill="#f5b6d3"/>
        <path d="M445.11,1195.64c1.62,3.13.26,6.99-2.47,8.41-2.5,1.3-6.02-.49-7.52-3.37-1.31-2.52.45-5.15,2.61-6.27,2.39-1.24,5.95-1.51,7.37,1.23Z" fill="#f5b6d3"/>
        <path d="M442.5,1167.27c.11,5.02-1.6,6.47-3.8,7.59-1.9.97-3.08,1.56-5.06,2.56-.95.49-2.19,1.16-2.95,1.54.2.3.58.96.99,1.48-1.35.82-2.29,1.52-3.55,2.15-.79-1.17-.87-1.53-1.15-1.89-.21.06-.63.18-.78.26-1.08.41-1.46.61-3.24,1.24,0,0-1.84-2.02-3.95-3.92,1.64-.83,3.93-1.86,5.34-2.48-.44-.68-.97-1.53-1.78-2.47,0,0,2.39-.94,4.15-2.1.7,1.66,1.19,2.45,1.52,3,.61-.31,1.69-.81,1.81-.87.93-.42,3.94-1.86,6.05-3.07.93-.52,1.25-2.16,1.07-4.4,0,0,3.54,1.21,5.34,1.38Z" fill="#f5b6d3"/>
        <path d="M434.05,1153.9c1.15,2.29,1.1,4.96-.54,7.21-1.02,1.41-2.2,2.67-4.45,3.79-6.37,3.18-10.5,1.22-12.31-2.39-1.7-3.4-1.74-7.86,4.06-10.76,6.1-3.05,11.5-1.32,13.24,2.15ZM421.18,1160.78c.57,1.15,2.04,1.22,4.86-.19,2.71-1.36,4.23-3.55,3.61-4.8-.57-1.15-2.61-1.11-5.43.3-3.05,1.53-3.65,3.48-3.04,4.7Z" fill="#f5b6d3"/>
        <path d="M424.68,1133.94l-1.17.8c.75.66,2.89,3.4,3.28,4.19.62,1.26.18,2.5-.72,3.29-.79.7-2.92,1.79-4.04,2.33-1.61.79-5.71,2.89-6.42,3.28-.79.43-2.53,1.42-3.82,2.09-.86-2.25-1.43-3.4-2.39-5.08,2.03-.99,10.61-5.29,10.81-5.38.88-.43,1.29-.85,1.05-1.36-.25-.5-1.12-1.32-1.51-1.54-1.72.85-6.03,2.91-8.16,4.09-.94.5-3.07,1.5-4.08,2.13-.97-1.39-1.85-2.61-3.5-4.44l18.85-9.23c.48,1.77,1,3.3,1.83,4.81Z" fill="#f5b6d3"/>
        <path d="M397.21,1131.88c.71,1.48.17,3.21-1.17,3.86-1.11.54-3.05-.04-3.75-1.48s-.35-3.08,1.15-3.8c1.27-.61,3.1.05,3.77,1.43ZM403.88,1125.68c1.02-.45,9.41-4.46,10.14-4.81,5.92-2.86,9.12-1.82,12.44-.22-.68,1.84-.99,2.57-1.31,4.46-2.62-1.31-5.82-1.28-7.73-.23-.71.39-3.63,1.71-4.61,2.23-2.95,1.56-9.76,4.8-11.91,5.85-.49-1.5-1.41-3.63-2.25-4.97,1.91-.65,4.41-1.95,5.23-2.3Z" fill="#f5b6d3"/>
        <path d="M411.41,1107.39c1.1,2.31.99,4.98-.69,7.2-1.04,1.38-2.25,2.62-4.52,3.7-6.43,3.05-10.52,1-12.25-2.65-1.63-3.44-1.58-7.9,4.28-10.68,6.16-2.92,11.52-1.08,13.19,2.43ZM398.41,1114.01c.55,1.16,2.01,1.26,4.87-.1,2.73-1.29,4.3-3.46,3.7-4.73-.55-1.16-2.59-1.17-5.43.19-3.08,1.46-3.72,3.4-3.14,4.64Z" fill="#f5b6d3"/>
        <path d="M402.43,1087.22l-1.19.78c.74.67,2.83,3.46,3.2,4.26.59,1.27.13,2.5-.78,3.28-.81.68-2.96,1.73-4.08,2.25-1.63.75-5.77,2.77-6.49,3.14-.8.41-2.56,1.37-3.86,2.02-.82-2.27-1.36-3.43-2.28-5.13,2.05-.95,10.72-5.07,10.91-5.16.89-.41,1.31-.83,1.07-1.34-.24-.51-1.09-1.35-1.48-1.57-1.74.81-6.09,2.78-8.24,3.92-.95.49-3.09,1.44-4.13,2.05-.94-1.42-1.8-2.66-3.41-4.51l19.03-8.84c.45,1.78.93,3.32,1.73,4.85Z" fill="#f5b6d3"/>
        <path d="M383.84,1077.62c2.75-1.16,8.3-3.6,11.68-5.44.54,2.31.88,3.16,1.72,5.33-2.44.93-7.11,2.92-7.57,3.14-.82.37-4.13,1.83-4.79,2.14-1.71.77-3.98,1.85-6.13,2.91-.3-2.2-1.52-5.2-1.52-5.2l1.67-.76c-.99-.43-2.23-1.5-3.26-3.05,1.56-1.1,2.22-1.71,3.87-3.34,1.63,3.26,2.99,4.09,4.34,4.27Z" fill="#f5b6d3"/>
        <path d="M391.41,1060.78c-1.64.82-2.36,1.32-4.19,2.66-1.12-2.31-2.23-4.05-3.28-3.58-.93.42-1.3,1.37-1.64,3.23-.39,2.15-.79,4.39-3.56,5.63-3.9,1.74-6.47-1.42-9.35-7.15,1.25-.56,2.83-1.4,3.94-2.16,1.41,3.06,2.65,4.69,3.36,4.39.23-.11.37-.74.43-1.34.41-2.43.58-5.62,4.63-7.42,3.04-1.36,6.7.04,9.66,5.74Z" fill="#f5b6d3"/>
        <path d="M369.45,1036.75c1.39,3.24-.25,7-3.07,8.21-2.59,1.11-5.97-.92-7.25-3.9-1.12-2.62.83-5.11,3.06-6.07,2.47-1.06,6.04-1.07,7.26,1.77Z" fill="#f5b6d3"/>
      </g>
    </g>
  </g>
</svg>